/* XPM */
static char *faae2092b01e4654eaafe0f86be62a58t3oPfsBCAL5lcJHm[] = {
/* columns rows colors chars-per-pixel */
"50 50 219 2 ",
"   c None",
".  c #11100E",
"X  c #3C1C12",
"o  c #371A10",
"O  c #2F1B12",
"+  c #39271A",
"@  c #2C241D",
"#  c #2D2923",
"$  c #362D25",
"%  c #39312B",
"&  c #3D3A33",
"*  c #481D12",
"=  c #492816",
"-  c #552714",
";  c #493B1E",
":  c #5A351B",
">  c #663A1E",
",  c #473726",
"<  c #593825",
"1  c #463D35",
"2  c #6A3F24",
"3  c #705517",
"4  c #5B4825",
"5  c #5A4839",
"6  c #544B3D",
"7  c #624D2B",
"8  c #6C4628",
"9  c #734321",
"0  c #7A4927",
"q  c #69552D",
"w  c #624A35",
"e  c #6A5633",
"r  c #6D5934",
"t  c #6D5A38",
"y  c #675233",
"u  c #745B39",
"i  c #77532C",
"p  c #74613D",
"a  c #7A7C30",
"s  c #564811",
"d  c #2D3E5E",
"f  c #3E4047",
"g  c #304C75",
"h  c #5E4E41",
"j  c #5C5750",
"k  c #685D53",
"l  c #715E47",
"z  c #796645",
"x  c #7B6848",
"c  c #6E6459",
"v  c #7B6E53",
"b  c #5B677A",
"n  c #797369",
"m  c #7E7B77",
"M  c #7F6460",
"N  c #565D75",
"B  c #88751E",
"V  c #864E25",
"C  c #8B5328",
"Z  c #955B2B",
"A  c #98792C",
"S  c #8F6E2F",
"D  c #AD7D2E",
"F  c #AA7138",
"G  c #D17E21",
"H  c #825D43",
"J  c #846949",
"K  c #9A6B48",
"L  c #897748",
"P  c #857351",
"I  c #8B7958",
"U  c #957C5A",
"Y  c #867D75",
"T  c #827367",
"R  c #BC7C69",
"E  c #DE7E6E",
"W  c #7E8331",
"Q  c #B5971A",
"!  c #BCA51B",
"~  c #BAAA1C",
"^  c #BDB31F",
"/  c #8D852A",
"(  c #89872D",
")  c #948A2B",
"_  c #94892A",
"`  c #9B9428",
"'  c #9F982A",
"]  c #9A9228",
"[  c #958932",
"{  c #A98A26",
"}  c #A49926",
"|  c #A3992B",
" . c #A39826",
".. c #B59523",
"X. c #A89B30",
"o. c #B49532",
"O. c #AEA323",
"+. c #B3A421",
"@. c #B9A82B",
"#. c #B3B427",
"$. c #ABA033",
"%. c #B6A136",
"&. c #D0921D",
"*. c #CCBB0A",
"=. c #CCB90B",
"-. c #C5A818",
";. c #C6B311",
":. c #C2B41A",
">. c #CBB915",
",. c #D2BD06",
"<. c #C88E25",
"1. c #C2B629",
"2. c #D4C305",
"3. c #DBCC04",
"4. c #D4C40B",
"5. c #D8C909",
"6. c #DFD103",
"7. c #DFD10D",
"8. c #DBCF17",
"9. c #E2D503",
"0. c #E6DB04",
"q. c #E9DD04",
"w. c #E6DB0B",
"e. c #E8DD0C",
"r. c #E5DA16",
"t. c #EDE204",
"y. c #EDE30E",
"u. c #F1E604",
"i. c #EEE41D",
"p. c #EFE414",
"a. c #F2E819",
"s. c #C8C439",
"d. c #D8CF28",
"f. c #E6DA26",
"g. c #EEE423",
"h. c #EDE329",
"j. c #F0E724",
"k. c #F1E823",
"l. c #F0E62B",
"z. c #F2E82D",
"x. c #EEE531",
"c. c #F3E934",
"v. c #F4EA3A",
"b. c #95825C",
"n. c #94814B",
"m. c #A8904F",
"M. c #BAAA47",
"N. c #988766",
"B. c #918472",
"V. c #908875",
"C. c #A59473",
"Z. c #A99C7A",
"A. c #AB9469",
"S. c #AFA666",
"D. c #E0897A",
"F. c #C2B878",
"G. c #CD9651",
"H. c #DDDB4F",
"J. c #E5DE4A",
"K. c #F2E94A",
"L. c #F3EB5A",
"P. c #EEE643",
"I. c #CDC362",
"U. c #F2EA69",
"Y. c #F0E97B",
"T. c #384B85",
"R. c #3B548C",
"E. c #2F6D9D",
"W. c #405F9C",
"Q. c #406D94",
"!. c #6A7989",
"~. c #456AA3",
"^. c #8B709B",
"/. c #3688B8",
"(. c #4591BA",
"). c #6D98BE",
"_. c #3FB6E1",
"`. c #449DCD",
"'. c #4BA5D2",
"]. c #4CB8E1",
"[. c #96968B",
"{. c #919497",
"}. c #A09A95",
"|. c #9CA5A6",
" X c #A6AEB0",
".X c #AAB1B2",
"XX c #B8BABA",
"oX c #AAADAB",
"OX c #AAA89A",
"+X c #E59587",
"@X c #C3BA92",
"#X c #E6A498",
"$X c #C6BCA9",
"%X c #E9B5AA",
"&X c #96C0AC",
"*X c #D8D49D",
"=X c #EFE98C",
"-X c #CBC5AB",
";X c #D3CDBB",
":X c #D5D0B7",
">X c #E8E4AE",
",X c #C8C8C6",
"<X c #D0CDC3",
"1X c #D9D6CB",
"2X c #CFCFD1",
"3X c #D4D3D5",
"4X c #DEDEDE",
"5X c #DBDAD4",
"6X c #E1DFDB",
"7X c #E6E4DB",
"8X c #F8F6D9",
"9X c #EEEDEA",
"0X c #E6E6E5",
"qX c #F0EFEC",
"wX c #F1F1EE",
"eX c #FBFAEA",
"rX c #F6F5F3",
"tX c #FCFCFB",
"yX c #FAF9F5",
/* pixels */
"                                                                                                    ",
"                                              }.Z.                                                  ",
"                                            Z.N.b.b.                                                ",
"                                          N.Z.N.U I U                                               ",
"                                          C.C.b.P J P                                               ",
"                                        7 C.C.N.P x x I                                             ",
"                                        y N.N.I v p z P                                             ",
"                                          N.b.L x p z x                                             ",
"                        I P U N.C.      5 b.L J p t t z                                             ",
"                        z u z I N.S.G.  z n.L p e q t                                               ",
"                      P t t u p i A <.B.U L p r y 7 7                                               ",
"                      B.t e t r d d G.R L r q 7 7 7 e                                               ",
"                        z e e r 0 S D J , ; ; ; 4 4   L.U.=X=XK.L.                                  ",
"                        P r r #.d.8 q 5.t.u.p.i.k.l.v.c.v.v.v.v.K.K.                                ",
"                      h.v.c.h.l.x.j.a.y.p.i.k.k.j.z.c.l.c.c.z.z.c.K.                                ",
"                    | >.h.H.#.h.j.z.j.i.i.k.g.k.k.d.z.a.=X=X| c.z.c.                                ",
"                    ' O.f.h.x.x.x.h.h.r.Z.8X>Xp.i.t.*XrXtXtXtXyXa.l.                                ",
"                  $.} ` ^ h.h.x.h.i.` 0XrXrXtXtXeXt.9XrXtXtXtXtXeXz.                                ",
"                I.| ' ` ` 4.i.8.i.0.:X5X9XrXyXtXtX7X4XT.T.rXtXyXtXa.K.                              ",
"                | ` W ` ) O.r.g.y.6.-X;XR.W.R.tXwXtXR.Q.tX~.yXrXrXY.j.                              ",
"                | ' W ` ` ` 5.8.9.2.;Xg (.O ).N rXeXE.. . '.wX9X9XU.p.                              ",
"              M.| | ( ` ` ` O.t.6.*.@Xg /.. (.R.qXqXg ]. XH.7X7X0Xt.y.                              ",
"              | X.' ' ` ` ` ` 4.9.2.A A.`.].`.<X1X7X>.1.6.6.;X:X=Xt.a.                              ",
"              $.| ' ' ` ` ` ` ' 6.;.-.<.&.m.$XXX-X1.~ ;.~ ^ @X4.q.p.k.x.                            ",
"                  ' ` ) ' ' ] ` ! ! <.G G ,.A.S.=.9.;. .+.3.0.3.q.y.u.u.        6.i.g.              ",
"                  M.' ) ` ] W ]  .;.-.-.-.Q - - 3 F.F.3 1X0X,.3.0.t.t.t.      -.r.-.6.              ",
"                    ' ` ] ] W ( ` *.Q ! =.6.- * - 5XrXX wXrX3.9.q.t.t.t.rXwX  ..{ { ..              ",
"                    S.` ) ) ) ] ) ~ 3.3.9.0.* * * * X X o 4.9.e.q.q.q.q.5X<X;X  { )                 ",
"                      9X4XXXn._ ) ` 5.6.0.q.s - o * o o o 9.0.i.w.9.6.0.@X:.r.  ..                  ",
"                    >X7X4X,X[./ ) ] ^ 9.0.0.q.+X+XE D.O s e.0.9.9.3.#.1.1.m { ..@.                  ",
"                h.*.o.3X2X.Xv / ) ) O.6.9.0.0.w.%X#X%X+ e.w.9.9.3.>.3.3.;.                          ",
"                J.%.  |.|.( _ / _ ) O.6.s.9.^ 3.=.6.3.7.9.9.9.3.w.d.2.*.!                           ",
"                {.).        [ _ _ ) ) 2.q.q.#.#.6.3.3.3.6.5.5.2.,.M.U }.                            ",
"                Y.3.,.%.    _ _ [ _ ) +.2.9.f.7.3.4.5.*.n.F.1X5X0XU ,X-X                            ",
"                7.,.=.      / _ ( / A / ~ ;.:.D [.}.3X0X..-.!.4Xn T U $X                            ",
"                -.Q X.          ( v |.|. X2X@X^.N.{.0X5X5 /.XXH Z F i <                             ",
"                                XX XoX XXX3X3XU 5XoX5 D /.g /. ., Z 0 Z                             ",
"                                J T Y m ^.K Z Z V F Q 4 E.; g b Z Z Z C                             ",
"                                , $ + > 9 9 + , < $ : * : - + V C V 0 8                             ",
"                                K i 9 9 > > C C V @ V 0 9 2 2 9                                     ",
"                                  i 2 2 : 2 2 2 < : F D = < C                                       ",
"                                            K 2 - 0 B = S 2 Z                                       ",
"                                              C + O.0.;.      n n                                   ",
"                                          V.c l < B.1.}.V.  z & 6                                   ",
"                                          v w #     V.h T Y J # $                                   ",
"                                            v + %   k 1 h 8 y k j                                   ",
"                                            C.H 7     1 k 1 % # %                                   ",
"                                                      @ c v # $                                     ",
"                                                          h @ &                                     ",
"                                                                                                    "
};
