/* XPM */
static char *_56f5d8c5bea4ba48ca4fd151b9b3e6ad4ImUx4gXzzJJCS9[] = {
/* columns rows colors chars-per-pixel */
"50 50 255 2 ",
"   c #723634",
".  c #38741D",
"X  c #275B29",
"o  c #34573C",
"O  c #2C6329",
"+  c #346B28",
"@  c #37732E",
"#  c #57622A",
"$  c #653D77",
"%  c #347A49",
"&  c #475B4D",
"*  c #4C6957",
"=  c #536C58",
"-  c #577559",
";  c #597469",
":  c #59706F",
">  c #666165",
",  c #627A6A",
"<  c #647C76",
"1  c #961C01",
"2  c #A81C01",
"3  c #9C3006",
"4  c #A92801",
"5  c #B32B02",
"6  c #A63706",
"7  c #B93A02",
"8  c #AE2322",
"9  c #C73A01",
"0  c #BA4706",
"q  c #BA5407",
"w  c #AE5313",
"e  c #BB6A0C",
"r  c #985226",
"t  c #8D6F34",
"y  c #AE6E27",
"u  c #C64803",
"i  c #C75606",
"p  c #CD520B",
"a  c #D65B05",
"s  c #DA6905",
"d  c #DA7705",
"f  c #CD6C10",
"g  c #E16C01",
"h  c #E47803",
"j  c #D06326",
"k  c #81385E",
"l  c #A56B58",
"z  c #C07243",
"x  c #D26F73",
"c  c #3C8B1C",
"v  c #3D822B",
"b  c #4A8D19",
"n  c #5AA40B",
"m  c #6FB112",
"M  c #448A25",
"N  c #4D942E",
"B  c #589632",
"V  c #6BB32B",
"C  c #7AC52F",
"Z  c #59AA4F",
"A  c #5DA255",
"S  c #658176",
"D  c #758D70",
"F  c #64C056",
"G  c #6CC670",
"H  c #999420",
"J  c #D59112",
"K  c #E78603",
"L  c #EB9604",
"P  c #E79113",
"I  c #ECA904",
"U  c #ECB703",
"Y  c #ECB91A",
"T  c #DAA520",
"R  c #EAB32D",
"E  c #8ED106",
"W  c #A2DC14",
"Q  c #B1ED0B",
"!  c #8FCF2F",
"~  c #B3EC2D",
"^  c #D5C51A",
"/  c #ECC905",
"(  c #F3C404",
")  c #EED603",
"_  c #F3D406",
"`  c #F0CF16",
"'  c #D1F90C",
"]  c #EDEF05",
"[  c #F0CE2E",
"{  c #D3F630",
"}  c #EDE933",
"|  c #889669",
" . c #879A79",
".. c #9FA863",
"X. c #88A978",
"o. c #D09B4A",
"O. c #AFF154",
"+. c #9ADD66",
"@. c #BCF17E",
"#. c #F0CF4D",
"$. c #CDF554",
"%. c #F4EB51",
"&. c #D4CE74",
"*. c #C9F26E",
"=. c #F7EF70",
"-. c #36429D",
";. c #574EAA",
":. c #6669A5",
">. c #3759CF",
",. c #3E6EDD",
"<. c #455DCC",
"1. c #506ECF",
"2. c #667BD6",
"3. c #4A6EE6",
"4. c #4B7BE6",
"5. c #5278E4",
"6. c #657AE5",
"7. c #A669AB",
"8. c #D6598A",
"9. c #7B8D8C",
"0. c #67A19E",
"q. c #73AAAB",
"w. c #72C791",
"e. c #7BD7AB",
"r. c #5686DA",
"t. c #5891D8",
"y. c #708DD3",
"u. c #748ADA",
"i. c #5CABDD",
"p. c #68AED6",
"a. c #65BADE",
"s. c #6BBEDD",
"d. c #4788EC",
"f. c #5687E6",
"g. c #4D96EE",
"h. c #5A97E8",
"j. c #519CED",
"k. c #4987F5",
"l. c #468AF2",
"z. c #498CF3",
"x. c #4C93F2",
"c. c #4E97F4",
"v. c #5199F1",
"b. c #768CE2",
"n. c #6E97E9",
"m. c #55A3E5",
"M. c #5CABE3",
"N. c #56A3EA",
"B. c #56A5ED",
"V. c #5AA9EA",
"C. c #65A7E4",
"Z. c #63B4E4",
"A. c #68B6E2",
"S. c #6BBCE2",
"D. c #74B1EA",
"F. c #7FD9C3",
"G. c #6DC2DE",
"H. c #71C5DE",
"J. c #75CADE",
"K. c #7BD4DA",
"L. c #7FDADC",
"P. c #6DC3E1",
"I. c #72C5E1",
"U. c #73CAE2",
"Y. c #78CAE8",
"T. c #7BD3E5",
"R. c #7CD6E4",
"E. c #7AD2F0",
"W. c #8F988E",
"Q. c #96AB88",
"!. c #91AE8C",
"~. c #9BB58A",
"^. c #B0A989",
"/. c #A2B78B",
"(. c #A6B992",
"). c #AABC96",
"_. c #A8BD99",
"`. c #9AA6AA",
"'. c #92AFAC",
"]. c #AFCA8B",
"[. c #AAC297",
"{. c #AEC29A",
"}. c #B2C69D",
"|. c #B6CB9E",
" X c #B2EE91",
".X c #B4F197",
"XX c #85DAAC",
"oX c #B6C8A4",
"OX c #BACCA3",
"+X c #BFD3AB",
"@X c #90E7B7",
"#X c #A6EFB0",
"$X c #D4DF95",
"%X c #D6E89C",
"&X c #C4D4AC",
"*X c #CFD3B5",
"=X c #C8D9B4",
"-X c #CBDCB4",
";X c #DBEFAC",
":X c #D7E6B8",
">X c #D4E4BB",
",X c #E9F7A8",
"<X c #EBF5AF",
"1X c #E8F6B9",
"2X c #909ED6",
"3X c #90ABEE",
"4X c #95ACF8",
"5X c #9BB4FB",
"6X c #A3B0E9",
"7X c #A6BAFC",
"8X c #CB9CCC",
"9X c #88DEC8",
"0X c #84DFD3",
"qX c #81DCDD",
"wX c #89E5C7",
"eX c #9AEBC7",
"rX c #9DF2C9",
"tX c #88E5D6",
"yX c #8DEBD6",
"uX c #85E4DB",
"iX c #89E6DA",
"pX c #8CEBDC",
"aX c #92EBD4",
"sX c #90EDDB",
"dX c #8FF1DD",
"fX c #98F1D4",
"gX c #93F3DC",
"hX c #81CBE5",
"jX c #88D6E0",
"kX c #82DCE2",
"lX c #B4CFFD",
"zX c #85E3E3",
"xX c #87E5E3",
"cX c #8DEDE1",
"vX c #91EDE1",
"bX c #91F1E0",
"nX c #B0EBEB",
"mX c #DAE9C6",
"MX c #DBECCF",
"NX c #E1E9CA",
"BX c #E2EDCC",
"VX c #E9F7C7",
"CX c #E4F3CD",
"ZX c #F2FDC6",
"AX c #E4EED3",
"SX c #E5F3D3",
"DX c #E9F4D5",
"FX c #EAF4DB",
"GX c #EAF6DA",
"HX c #F3FDD7",
"JX c #EEF9E2",
"KX c #F5FCE7",
"LX c #F5FDED",
"PX c #FAFEF3",
"IX c #F9FEF5",
/* pixels */
"sXsXdXyXdXgXdXgXbXbXbXgXgXbXdXgXdXdXgXgXdXgXgXgXfX@XgXgXgXgXgXgXgXgXgXgXgXgXfX.X'  XrXrXrX.X*.#XbXbX",
"pXpXxXpXpXpXcXcXcXcXbXbXbXdXcXdXdXcXcXpXdXpXdXdXO.N dXdXdXgXdXgXgXbXgXdXgXgXrX] rXgXbXgXbXpXbX X X#X",
"pXyXiXpXpXpXpXcXcXcXcXcXdXcXbXcXpXxXpXyXyXdXdXgXW v e.dXpXpXdXdXcXcXpXdXvXvX.X$.bXcXbXbXcXcXsXsXgXrX",
"2XyXiXpXiXcXpXpXcXcXcXcXcXcXdXcXpXpX@XG yXyXdX@XQ v Z L.pXyXe.yXyXdXyXgXsXsX#X$.cXbXbXbXcXgXsXaXfXaX",
"2XtXiXtXiXiXpXsXpXdXcXdXpXpXpXdXyXpXF.F wXpXL.e.Q M Z F.yXyXF XXyXyXyXyXyXgXrX{ gXpXdXdXcXdXeX X.X X",
"wXyXiXtXpXiXpXpXdXdXdXdXdXdXdXdXyXyXF.C Z yXdX+.W M c w.yXwXV w.yXyXyXyXyXyXgX.X$.#XeXeX#X*.@.eXgXyX",
"yXyXuXtXiXiXiXpXdXdXdXcXcXpXcXcXwXwXpX~ F e.dXO.Q c @ Z F.O.N w.tXyXyXdXyXyXdXL.aX.X*.@..XaXpXpXyXyX",
"uXL.uXtXuXiXuXpXL.cXpXcXcXpXcXcXpXC dX{ V Z L.$.Q c v N F.W v w.uXtXe.tXpXiXcXbXcXcXpXpXpXpXpXpXyX.X",
"uXuXtXyXuXuXiXuXpXpXxXxXcXxXcXpXbXO.G O.E Z e.{ Q M + c ! V v F.xXG A L.cXL.vXL.pXxXcXcXcXxXvX#X@.eX",
"L.L.L.L.qXuXqXzXzXzXxXxXzXzXxX+.@X@Xm G ' Z Z ~ Q b O M E . v L.A N K.L.L.cXL.cXzXzXxXxXzXzX.X.XuXzX",
"L.L.L.L.qXqXD.A.L.xXzXL.zXzXzX+.! XX' n ' E B C ' b O N b O N A V % xXL.cXR.cXR.zXzXxXxXzXeX XjXzXzX",
"L.L.L.L.hXr.jXY.m.L.zXxXzXzXzXxX{ ! XXW m Q B B Q . O b @ O Z ! O uXG tXL.cXxXxXkXzXxXjXiX XeXxXzXzX",
"t.F.K.K.r.K.qXkXf.L.kXkXkXkXkXzXXX] V ~ m ' m . E + X + O M m + e.C N E.zXuXzXzXxXuXkXzXkX X#XjXzXkX",
"r.K.K.n.hXK.L.qXf.L.kXkXkXkXkXkXxXXX' m W n ~ b E O X X . b O M v % zXzXkXkXkXqXqXkXkXkXqXeX{ 9XzXkX",
"f.K.K.5.K.qXhXt.I.K.R.kXkXkXkXkXkXkXe.Q n E n n n O X O . O @ o q.L.xXkXxXkXqXkXqXkXkXkXqXqX#X{  X0X",
"i.J.J.h.K.S.5.hXT.T.K.kXR.kXR.kXkXkXR.kX+.# w J f 4 w w # @ 0.kXkXkXkXkXkXkXkXhXqXqXqXkXR.R.K.kX X*.",
"C.I.5.J.n.A.T.J.K.J.U.T.T.T.U.T.E.Y.E.r L J [ w K L h q g s > hXT.T.E.T.T.E.E.T.T.T.T.T.T.T.T.U.T.hX",
"p.t.s.G.h.H.H.H.I.U.U.H.U.U.U.J.U.U.o.K _ y r U L 4 h h j p a l T.T.Y.U.Y.U.U.U.J.U.U.U.J.U.U.U.U.J.",
"S.h.S.H.r.D.h.f.4.r.H.H.H.I.H.J.P.y d q ` ) ) y L d K i p 7 3 z :.K.Y.4X<.Y.U.U.U.H.H.H.U.U.U.U.U.U.",
"C.C.i.f.n.i.s.s.H.S.h.H.H.G.H.H.W.s 0 ) _ d _ U 6 K q d 0 5 p 7 D U.U.2X<.G.U.H.U.U.U.U.U.H.G.P.I.H.",
"5.S.C.s.h.s.s.s.s.s.5.G.s.s.G.p.h i J _ / %.[ I 6 0 d d u 4 u 5 3 > P.1.>.P.P.P.G.G.G.G.G.G.P.G.s.G.",
"r.s.r.s.D.f.s.s.s.C.p.s.a.s.s.y f I ` _ } ,Xf P K s s s u 9 7 u i | G.r.>.S.P.P.G.P.P.P.a.G.G.G.s.s.",
"C.A.C.C.a.h.d.f.4.C.Z.A.A.a.p.s J U } #.R #.[ U K d d i 4 u 0 0   ; :.b.<.S.S.Z.a.S.Z.S.a.a.a.a.a.a.",
"Z.Z.V.f.i.i.M.i.M.i.i.i.M.M.: L 9 U =.o.=.[ ( I L h d d i 1 7 q :.t.;.y.C.Z.Z.Z.M.Z.Z.M.M.M.i.M.i.Z.",
"V.V.V.h.C.V.M.M.i.i.i.i.i.M.w L I [ #.%X=.R ` ( I h h 0 s 4 1 q 0 e   Z.Z.V.V.Z.M.M.M.M.M.M.M.M.M.M.",
"N.B.N.f.j.B.N.N.j.i.j.m.i.j.j L Y R `.7.%.} T R I h 6 K s 4 4 7 7 3  .V.B.B.B.B.V.B.B.m.N.m.m.m.m.j.",
"N.j.f.f.N.N.N.j.m.j.j.m.j.j.L P [ 3X1.D.y.%./ [ T q h s i 1 4 5 6 q | N.B.B.B.B.B.B.N.N.N.N.m.j.m.j.",
"d.f.x.j.v.j.j.j.j.j.j.g.g.h.K f [ y.nXnX7XR / ` I 3 g g u 2 2 6 u a - t.B.B.c.B.j.j.j.v.j.v.j.j.j.j.",
"x.g.x.g.x.g.g.x.g.x.g.g.g.f.q L Y 4X4X3Xb.R J / U K p g a 4 2 7 9 q t y.c.c.c.c.g.c.c.v.c.g.g.g.g.g.",
"z.z.z.z.z.z.z.z.z.l.z.z.d.x.L L Y ..3Xb.o.T / J q K K h 0 4 1 7 u q | r.c.c.c.c.x.g.x.g.x.x.z.z.d.x.",
"l.l.l.l.k.3.d.z.l.l.z.z.l.d.K J / f %.#.` ) ) I i K K h p 1 2 7 7 p # x.c.c.c.z.z.z.z.z.z.z.z.z.k.z.",
"z.d.l.l.d.,.l.l.l.l.z.l.z.z.K a ( [ p =.) ` 6X6X3X2Xh g 0 2 1 9 9 p Q.z.z.k.z.z.z.z.l.z.z.z.z.d.k.k.",
"l.l.l.d.4X3.3.k.l.l.l.l.l.l.e L U R %.[ } 7X6X7X7X3X:.g 9 8 -.$ u 3 w.k.z.z.z.4.l.l.z.l.z.l.l.l.k.5.",
"l.l.4.d.6.3.4.k.l.l.l.4.l.l.z K P _ %._ &.4X2XlXlX4X7Xa u <.y.-.;.q q.k.z.z.k.3.>.l.l.k.l.l.l.l.k.5.",
"l.d.l.k.b.3.l.k.l.l.3.>.l.k.: w L _ [ ] `.2.lXlX7X2X7Xa j b.lX3X2.H > k.c.k.4.6.,.k.l.l.z.l.l.l.k.<.",
"l.d.l.l.3.>.k.k.l.l.3.,.4.4.2.K I _ a ] 2X2.lX6X7X2.7Xa j 2.D.1.;.t 1.k.z.k.k.f.3.k.l.l.l.l.z.l.k.k.",
"d.l.d.l.,.<.q.`.`.(././.(.(./.P R U U _ y.y.lXn.b.b.4Xw u k 1.;.a t Q.~.~./.(.~.!.'.q.y.h.g.d.k.k.k.",
"~.~.(.(.(.(.(.(.(./.(.(.~._._.w h f ( ( 2.u.4Xn.4Xb.4Xi p u 9 p H   ^.)._._.).).{.[.[.)._._.).).).(.",
"_._._._.[._.)._._.oX^._.oXoX`.8X8.l H [ 2X2.5X5X4Xu.4Xd J t z x ....W.Q.oX}.}.}.{.{.{.{.}.).{.[.|.|.",
"oXoXoXoXOXOXOX&X&X&X|.*X*XoX`.8X8.B ` ^ W.2.4X5X4X2.n.P / o.l 8...l  .(.}.OX|.OXOXOXOX&XOX~.).OXOXOX",
"+X+X&X&X&X&X=X-X*X:X>X>X>X-X:X7.7.D E } ..3X4X4X4X3Xr.I U l 8X$ ..OX^.&X&X=X&X=X=X-X-X-XQ.X.OX-X&X&X",
"=X*X-X-X=X:X>XmXmX:X:X=X:X:X+X-X:X;X*X$XS  .[.- ; !.: ^.*.>X=X*X:X&X&.-X=X-X>X:XmXmX>XmX~.# B &XmXmX",
"W.8X*X>X>X:X%X:X;X;X;X,X%X;X;X;X;X%X%X= D * ; S {._., ; NX>X>X>X:XmX>X-X>X-X:XMXmXmXBXMXNXAXNXAXBXBX",
"0.:.W.BX1X1X<X1X1X;X1X1X,X,X,X,X<X<X, < |.].D S ; : , ; ^.>XNXmXmXmXmX:XmX:X:XmX>XFXFXBXSXAXNXNXBXSX",
"W.l !.mXVXVXVXVXZXVXZX1X1X1X1X1X<X .!.= S S S D |.W.; - > FXCXAXMXMXmXmXMXmX:X:X:XCXCXCXSXCXSXCXCXSX",
"FXFXJXGXHXHXDXZXZXZXZXZXZX1XZX1X| S _.&X].~.~.; ; - D X.= & AXDXSXSXCXMXAXAXCXSXDXDXDXCXSXSXCXCXCXDX",
"KXKXFXFXHXHXHXHXHXZX1X<XZXZX1X^.S = - D D A o ; ; D ~.!.= : FXFXFXFXDXAXFXMXGXGXDXDXDXMXDXSXAXSXCXBX",
"LXLXPXIXLXIXKXHXZX<X,X,X,X,X1X9.`.oX+.!.; : - * * * - S = & & FXJXFXFXGXMXDXMXGXLXJXKXJXGXGXJXJXDXCX",
"IXIXIXIXIXLXAXDXCXVXVXVX1XCX; S ; - * * ; & X.[.].X.A & = * , _.GXJXGXGXFXGXLXLXLXLXLXPXPXLXLXLXKXGX",
"IXIXGXPXMXNXGXDXGXSXDXGXMXS S S S 9.S ; _.].].+.X...X.Q.; ; ; ; HXVX1XVXCXCXDXGXLXIXPXLXPXIXLXKXPXLX"
};
