/* XPM */
static char *_19b90c8d0794bcdd086baedc8731f1eIHxdOh5yQJQd0mMi[] = {
/* columns rows colors chars-per-pixel */
"50 50 145 2 ",
"   c gray26",
".  c #434242",
"X  c #464646",
"o  c gray29",
"O  c #4B4B4B",
"+  c #4C4B4B",
"@  c #4C4C4C",
"#  c gray30",
"$  c #4E4E4E",
"%  c gray31",
"&  c #515050",
"*  c gray32",
"=  c #535353",
"-  c #545353",
";  c gray33",
":  c #555454",
">  c #565656",
",  c #575656",
"<  c #565757",
"1  c #585858",
"2  c #595858",
"3  c gray35",
"4  c #5A5A5A",
"5  c #5B5B5B",
"6  c #5C5B5B",
"7  c #5B5C5C",
"8  c gray36",
"9  c #5F5F5F",
"0  c #605F5F",
"q  c #606060",
"w  c gray38",
"e  c #626262",
"r  c gray39",
"t  c #646363",
"y  c #646464",
"u  c #676666",
"i  c #676767",
"p  c #696A6A",
"a  c gray42",
"s  c #6C6C6C",
"d  c #6D6D6D",
"f  c gray43",
"g  c #6F6F6F",
"h  c #706F6F",
"j  c gray44",
"k  c #717171",
"l  c #737272",
"z  c #747474",
"x  c gray46",
"c  c #777777",
"v  c gray47",
"b  c #797979",
"n  c #7B7A7A",
"m  c #7B7B7B",
"M  c #7C7C7C",
"N  c #7E7E7E",
"B  c gray50",
"V  c #807F7F",
"C  c #808080",
"Z  c #818080",
"A  c #818181",
"S  c #818182",
"D  c #838383",
"F  c #848484",
"G  c gray52",
"H  c #878685",
"J  c gray53",
"K  c #888785",
"L  c #888787",
"P  c #898989",
"I  c gray54",
"U  c #8A8B8B",
"Y  c #8B8B8B",
"T  c #8C8B8A",
"R  c gray55",
"E  c #8D8D8D",
"W  c gray56",
"Q  c #90918B",
"!  c #92948D",
"~  c #94968F",
"^  c #909090",
"/  c gray57",
"(  c #929292",
")  c #939393",
"_  c #969790",
"`  c gray58",
"'  c gray59",
"]  c #979797",
"[  c #999996",
"{  c gray60",
"}  c #9A9B9B",
"|  c #9B9B9B",
" . c gray61",
".. c #9F9F9F",
"X. c #A0A0A0",
"o. c #A2A0A0",
"O. c #A2A1A1",
"+. c #A2A3A3",
"@. c gray64",
"#. c #A4A4A4",
"$. c #A5A4A4",
"%. c #A5A5A5",
"&. c #A7A7A7",
"*. c gray66",
"=. c #AAAAAA",
"-. c gray67",
";. c #ACACAC",
":. c gray68",
">. c #AFAFAF",
",. c gray69",
"<. c #B3B2B2",
"1. c gray70",
"2. c #B5B5B2",
"3. c #B4B4B4",
"4. c #B5B4B4",
"5. c gray71",
"6. c #B6B6B6",
"7. c #BABAB7",
"8. c #B7B8B8",
"9. c gray72",
"0. c #B9B9B8",
"q. c #BABABC",
"w. c #BCBCBC",
"e. c gray",
"r. c gray75",
"t. c #C0C0C0",
"y. c #C1C1C1",
"u. c gray76",
"i. c #C3C2C2",
"p. c #C3C3C3",
"a. c #C4C3C3",
"s. c #C3C4C4",
"d. c #C6C6C6",
"f. c gray78",
"g. c #C8C8C8",
"h. c #CACACA",
"j. c #CBCBCB",
"k. c gray80",
"l. c #CDCDCD",
"z. c gray81",
"x. c #D0D0D0",
"c. c gray82",
"v. c #D2D2D2",
"b. c gray83",
"n. c #D8D8D8",
/* pixels */
"R _ 7.0.6.6.6.6.6.6.<.6.<.6.6.6.6.<.6.6.6.6.3.6.6.6.6.6.6.6.6.3.6.3.6.3.6.3.6.3.6.3.6.3.8.3.6.>.Q R ",
"~ q.:.=.=.=.=.=.=.=.=.=.=.=.=.=.=.=.=.=.=.&.&.&.&.&.&.&.&.=.=.&.=.=.=.=.=.=.=.=.=.=.=.=.=.=.=.=.:.Q ",
"2.=.=.=.=.@.{ / @.=.=.=.=.=.=.=.=.=.&.=.&.&.&.&.&.&.&.&.&.&.&.&.&.;.;.;.=.=.=.=.=.=.=.=.=.=.=.=.;.] ",
"<.=.=.=. .0.d.l.I =.=.=.=.=.=.&.&.&.&.@.&.#.&.#.@.@.&.#.@.&.&.&.&.&.&.&.=.=.=.=.=.=.=.=.=.=.=.=.=.' ",
":.=.=.=./  .9 * 0 ' =.=.=.&.=.&.@.&.&.@.@.@.&.@.@.@.@.#.@.@.@.#.#.#.&.&.&.=.=.=.=.=.=.=.=.=.=.=.=.) ",
"<.=.=.=.&.R ' &.=.:.=.&.&.&.$.@. .@.$.@.o.@. .@. .X.X.$.@.' R  .#.#.#.&.&.&.&.+.| &.=.=.=.=.=.=.=./ ",
":.=.=.=.=.=.=.=.=.=.=.&.&.' F :.6. .I I /  . . . .@. . .G u.9.@.^ #.#.#.&.&.@.W 8.] &.=.=.=.=.=.=./ ",
":.=.=.=.=.=.=.=.=.=. .G ] j.z.k.e.e.d.d.d.0.@.I ^ {  . .{ 7 y - Z #.X.X.+.X.' k.' F ] =.=.=.=.=.=.) ",
"<.=.=.=.=.=.=.&./ I 8.l.d.u.d.d.8.6.8.7.e.r.p.>.m  . .]  .#.M F @.| X.X.| ` l.S O M 3.=.=.=.=.=.=.) ",
":.=.=.=.=.=.I :.x.l.a.a.a.a.u.a.3.:.<.<.6.&.x e $.] ] ' ] ] {  . .| X.X.' Z q   ] &.&.=.=.=.=.=.=./ ",
">.=.=.=.=.&.=.j.l.j.d.u.u.u.u.u.8.:.=.{ u e p r { ` ` ' ' ' ' ] | |  . .X.&.&.&.#.&.&.=.=.=.=.=.=.) ",
">.=.=.=.=.@.8.6.u.j.d.u.a.a.u.@.8 $ o $ 7 i i ) / / ^ / / / ' ' ] ] ]  . .X.X.X.o.#.#.&.&.=.=.=.=./ ",
">.=.=.=.&. .e.8.<.:.a.a.<.L e + @ @ @ * 4 i 4  ./ R R W / / / ' ` ` ] ]  . .X.X.$.#.#.#.&.;.&.=.=./ ",
">.=.=.=.&.' t.8.<.&.k 9 u $ o $ @ @ $ : 7 % G R R R R R R R / R ^ ) ] ] ] ]  . .o.X.#.#.+.' #.=.=.) ",
">.=.=.=.=./ e.6. .e < < * o $ o @ $ * @ p  .I I I I I I Y R G N L ^ ` ` ] {  . .X.X.@.#.X.=. .X.=.) ",
">.=.=.=.&.^ 0.I p t 9 4 4 $ o $ & $ $ | R J G I G G G J G k :.d.w.@.L Z D R ` ]  .X.X.#.#.F & 3.=./ ",
":.=.=.=.&. .i i d d p u e = % $ . ^ ' L G G F S F F S b I z.j.e.0.r.u.d.f.d.r.=.'  .X.+.#.+.s =.=./ ",
">.=.&.&.&.+.=.=.I s e p s < . k  .I L G F D F S S m d j.x.j.d.e.6.6.9.0.w.t.a. .E  .X.X.#.#.=.=.=.' ",
">.=.&.&.#.+.@. .} @.@.{ x 7 ..R I L G D S Z Z S V N =.<.u.u.g.u.>.:.:.<.3.0.#.F Z X. .$.#.#.&.&.=./ ",
">.=.=.#.#.@.@.| } { ] ) ' / R P J G F S S B M M M N S m S Z b d z @.=.:.<.$.D F Z  . .X.o.#.&.&.=./ ",
">.=.&.#.$.X.o.| { { ] / ^ W I I G G S Z M M M b m m m D x S F m k 4 * * < p N D F `  .X.X.#.#.&.=./ ",
">.=.&.#.$.@.Q ' { G / / / R I P G D S M M M b b c c c m G v Z Z M 8 , : * < p D F S  .X.X.+.&.&.=./ ",
">.=.&.&.@.X./ { ..&.&.I W R I I F S S M M b v x c z c c m B m F x p e 8 < < 4 u M v +.X.X.+.+.&.=./ ",
">.&.&.#.@.X...Z p X e } / R K G D M u / M b c x z z z c c m Z x 8 8 8 6 e 4 < * 1 f '  .X.#.#.#.=./ ",
">.&.&.#.+.X. . .; ] } / ^ P I B x =.x.1.z c c z z z z c c m m D ) ' ' ' / R G N j u Z X.o.$.#.&.=./ ",
">.=.&.#.@.X.X. ...] / / W R U c u.W e 4 e m z z z z z c c c m B Z S D I R R / ) '  . . . .$.#.#.&./ ",
">.=.&.#.#.X.X. .} ' ` ^ W R I D e i d B I b c c z z z c c m m B B F F L W Y / ' ] ]  .X.X.#.#.&.=.^ ",
"<.&.&.X.#.X. . . .] ` / W R I G I D Z m m m c c z z c c c m B B Z F I I I W / ) ]  . . .X.X.#.#.=.^ ",
">.&.I #.] X.X. . .] ] ) W R I I G F Z N m m c c c c c c m m B B S F I I R E ` ` ] ^ ] X.@.X.#.&.=./ ",
">.X.9.` I  .X. . .] ] / ^ W P U G F Z B B m m m m m m m m B B D F F G R E ^ ` ] ` #.^ ] X.#.&.&.=./ ",
">.=.] $ Z &.X.X. .I F I / ^ I I I G D S B B m c c m m B B B B B p ] X.M R ^ ` ] ] ^ p s #.&.#.&.=./ ",
"<.&.&.=.&.#.o. ./ =.8.6./ C I R K K F D D B m ..] m B B B c s =.b.x.6.0.#.F / ]  . .' =.X.&.#.=.=./ ",
">.=.=.&.#.#.X.{  .f.w.>.9.e.<.Z M I I G F F v S u I N a M f.h.f.f.h.>.3.3.9.&.F ]  .o.o.@.#.&.&.=./ ",
">.=.=.&.&.#. .` x.d.u.;.<.6.0.q.u.] N G G F S z I S L n.b.l.f.d.f.f.+.&.;.3.<.9.=.E  .#.#.#.&.=.=./ ",
">.=.=.&.&.+.I b.k.d.t.#.&.;.>.8.&.b I I I G I F F D S _ =.l.h.f.f.p. . .$.&.:.<.3.9.>.E X.&.&.=.=./ ",
">.=.=.=.&.E n.k.f.a.t.;.| I s e p 7 ' R R I I I I Y L ` ' / / >.u.8.'  . . .o.=.;.3.3.9.X.&.&.=.:./ ",
">.=.=.=.&.X.t.d.k.9.v * * * 4 e < #.^ ^ R ^ R R E Y R L ` ` E Z z z l m ` ] {  .#.;.&.M d ;.=.=.=./ ",
">.=.=.=.+.0.<.&.v < : * * < 0 e I ` ^ ^ / R R ^ E E ^ R ` ` ^ Y z 7 p j z M ] ] E j s j I &.=.=.=./ ",
">.=.=.=.=.] E I u 0 4 < * 1 e 4 #.] ` ` ' ^ ^ ^ W W ^ ^ ^ ' ` R i 7 4 7 0 h l t 4 u s d #.&.=.=.=./ ",
">.=.=.=.=.=.R p u u y 0 < < O &. .] ] ] ' ` ` ` ) ) ` ` ^ ` ^ z s r 7 1 8 1 6 4 7 u j y 3.=.=.=.=.' ",
">.=.=.=.=.=.;.X.` I c p 4 $ M $. . .' ] ] ] ] ] ` ] ] ] ] ) h z l s p y e 8 4 8 8 p j t <.=.=.=.=./ ",
">.=.=.=.=.=.=.=.&.#.&.&.#.=.&. .X. . . . . . .] ]  .] ' ]  .@.Z u j j j p u e 8 e s j M =.=.=.=.=./ ",
">.=.=.=.=.=.=.=.=.&.&.&.&.+.X.o.X.X. . . . . . . . . . . . . .X.=.] s p j j s u 8 p p X.=.=.=.=.=./ ",
">.=.=.=.=.=.=.=.=.=.&.&.#.#.#.#.&. .@. . .I ' X. .X.@. . .o.X.X.o.o.&.;.G u j d 8 8 8 <.=.=.=.=.:./ ",
">.=.=.=.=.=.=.X.] X.=.=.=.&.&.#.#.#.X.R u.X.#./ ] X.X.X.X.X.@.X.$.#.#.&.&.<. .s < 7 : >.=.=.=.=.=./ ",
">.=.=.=.=.=.$.3.9.m =.=.=.#.=.#.&.&.#.` c F ^ ]  . .#.X.@.&.$.$.#.#.&.&.&.&.=.;.>.Z 8 ;.=.=.=.=.=./ ",
":.=.=.=.=.=.#.R R ] =.=.=.=.=.&.&.&.&.&.^ p . * #.;.#.#.#.#.&.&.&.&.&.=.=.=.=.=.;.;.>.=.=.=.=.=.;.Y ",
"&.=.=.=.=.=.=.=.=.=.=.=.=.=.=.=.&.&.&.&.&.b 6.;.#.#.&.#.&.&.&.&.&.&.=.=.=.=.=.=.=.=.=.=.=.=.=.=.&.b ",
"W { =.=.=.=.=.=.=.=.=.=.=.=.=.=.=.=.=.&.=.=.=.&.=.&.=.=.=.=.=.=.;.;.;.;.=.=.=.;.=.;.=.=.=.=.=.&.Z G ",
"T T F G L I I I T F I I G I I I G I I I L G I I I G I F I G F I G L L I L I F I L I I I G I D x L E "
};
