/* XPM */
static char *_5a904ff4657422dfca4e57daa9b30c8vHnY0NGcKJUBcwze[] = {
/* columns rows colors chars-per-pixel */
"50 50 246 2 ",
"   c #351A0F",
".  c #391B11",
"X  c #2D2424",
"o  c #352D29",
"O  c #481D12",
"+  c #501F11",
"@  c #472819",
"#  c #513418",
"$  c #593518",
"%  c #653A1E",
"&  c #693B1C",
"*  c #412F21",
"=  c #483626",
"-  c #553724",
";  c #673D22",
":  c #56461D",
">  c #6F481E",
",  c #5D4C27",
"<  c #544436",
"1  c #674528",
"2  c #774825",
"3  c #65522B",
"4  c #7A5728",
"5  c #6B4B37",
"6  c #685233",
"7  c #695633",
"8  c #6C5936",
"9  c #6E5B39",
"0  c #735B36",
"q  c #74613E",
"w  c #7B683B",
"e  c #2E3C49",
"r  c #2F5470",
"t  c #444754",
"y  c #68594B",
"u  c #7A6847",
"i  c #736C57",
"p  c #45566E",
"a  c #436973",
"s  c #62716A",
"d  c #946D1B",
"f  c #8B7415",
"g  c #885428",
"h  c #91592A",
"j  c #895931",
"k  c #886325",
"l  c #886B2E",
"z  c #966634",
"x  c #867737",
"c  c #9D793A",
"v  c #A37235",
"b  c #92574B",
"n  c #846C48",
"m  c #88764A",
"M  c #967145",
"N  c #897653",
"B  c #947D58",
"V  c #A97E51",
"C  c #937C73",
"Z  c #AD7164",
"A  c #C27850",
"S  c #789969",
"D  c #9C9015",
"F  c #AE9617",
"G  c #B9A70A",
"H  c #B7A61A",
"J  c #BAAB1B",
"K  c #BDB61A",
"L  c #8A862C",
"P  c #92862B",
"I  c #948B2A",
"U  c #9A8929",
"Y  c #9D9427",
"T  c #96912A",
"R  c #9B9429",
"E  c #9F982A",
"W  c #8B8336",
"Q  c #978938",
"!  c #9A9036",
"~  c #A78A25",
"^  c #AD9223",
"/  c #A49B24",
"(  c #A39A2B",
")  c #A79829",
"_  c #B49E22",
"`  c #B49927",
"'  c #A79839",
"]  c #B49833",
"[  c #AEA327",
"{  c #B6A526",
"}  c #BCAC24",
"|  c #BBAC2A",
" . c #BEB127",
".. c #B1A733",
"X. c #B4A833",
"o. c #CF891E",
"O. c #C69A1B",
"+. c #C8A90C",
"@. c #C8B50E",
"#. c #CCBC0B",
"$. c #C3AA18",
"%. c #C4B313",
"&. c #CCBC12",
"*. c #C7B91A",
"=. c #C38F2F",
"-. c #C3AB23",
";. c #C5B523",
":. c #C7B822",
">. c #CABB23",
",. c #C7B82B",
"<. c #C3AC36",
"1. c #C7B937",
"2. c #D6BA32",
"3. c #CEC10E",
"4. c #D4C405",
"5. c #D5C807",
"6. c #DBCC04",
"7. c #D3C30A",
"8. c #DACC0A",
"9. c #DED004",
"0. c #DCD10B",
"q. c #CCC415",
"w. c #D2C414",
"e. c #D6C917",
"r. c #DED316",
"t. c #E2D504",
"y. c #E6DA04",
"u. c #E2D40B",
"i. c #E7DC08",
"p. c #E7DC17",
"a. c #ECE204",
"s. c #EDE30C",
"d. c #F1E604",
"f. c #EEE313",
"g. c #EEE41C",
"h. c #F1E716",
"j. c #CDC427",
"k. c #D6C927",
"l. c #DCD128",
"z. c #CFC130",
"x. c #D6CB37",
"c. c #DCD335",
"v. c #E6DC27",
"b. c #E0C433",
"n. c #E6DC36",
"m. c #EEE524",
"M. c #EDE32C",
"N. c #F0E724",
"B. c #F1E729",
"V. c #F2E82D",
"C. c #EDE337",
"Z. c #F3E933",
"A. c #F1E738",
"S. c #988B48",
"D. c #9C9645",
"F. c #8E8D55",
"G. c #988657",
"H. c #A48849",
"J. c #A89746",
"K. c #AE9152",
"L. c #B5A747",
"P. c #B5AC51",
"I. c #978464",
"U. c #948D74",
"Y. c #AD9474",
"T. c #ADA870",
"R. c #C5B945",
"E. c #C6BB56",
"W. c #C6BA76",
"Q. c #E4A169",
"!. c #BCCF65",
"~. c #D6CB44",
"^. c #D4C94F",
"/. c #CDC258",
"(. c #E3CE48",
"). c #EDE446",
"_. c #F2EA47",
"`. c #EBE359",
"'. c #F4ED55",
"]. c #D2C971",
"[. c #D3CA77",
"{. c #E6DF7F",
"}. c #F0E96F",
"|. c #395B8A",
" X c #326E8A",
".X c #4F6B8F",
"XX c #596B9D",
"oX c #4D77A6",
"OX c #7CA09A",
"+X c #508CB1",
"@X c #728DAE",
"#X c #4799C4",
"$X c #4EA5C7",
"%X c #72AAC9",
"&X c #898B87",
"*X c #958C8F",
"=X c #979589",
"-X c #929493",
";X c #AC9387",
":X c #97AE91",
">X c #B7AC8C",
",X c #A6A497",
"<X c #9198AB",
"1X c #9EA9B0",
"2X c #A6AAA9",
"3X c #B5B1A9",
"4X c #ABB2B4",
"5X c #B7B9B6",
"6X c #E49788",
"7X c #C4B794",
"8X c #E5AC91",
"9X c #C6BBAA",
"0X c #BEC0B5",
"qX c #D2CB97",
"wX c #E1DC95",
"eX c #F0EB8F",
"rX c #CBC6A9",
"tX c #D8D3A9",
"yX c #C9C5B9",
"uX c #D1CCB4",
"iX c #DAD6BA",
"pX c #E1DEBB",
"aX c #EBE6A9",
"sX c #F5F1B2",
"dX c #8C9EC0",
"fX c #91A7C4",
"gX c #AAB4CA",
"hX c #B0B5CC",
"jX c #B0C3D1",
"kX c #C7C9CB",
"lX c #CDCBCF",
"zX c #D6D4C7",
"xX c #D8D7D5",
"cX c #E0DCC4",
"vX c #EAE7C7",
"bX c #F6F4C8",
"nX c #E4E3D8",
"mX c #F8F6D9",
"MX c #DDE4E9",
"NX c #E9E9E7",
"BX c #F0EFE9",
"VX c #F7F6EB",
"CX c #EEF0F3",
"ZX c #F5F5F4",
"AX c #FAFAF5",
"SX c #FBFBFB",
/* pixels */
":.:.:.:.:.:.:.:.;.;.;.;.;.;.:.:.:.;.{ J.G.B N n u 9 q u m ..:.:.:.:.:.:.:.:.:.:.:.:.:.:.:.:.:.:.:.:.",
":.:.:.:.:.:.-.L.J.J.J.J.J.L.;.:.:.;.) S.B B N u u 9 9 w Q | :.:.:.:.:.:.:.:.:.:.:.:.:.:.:.:.:.:.:.:.",
":.:.:.:.:.:.| G.N n N B I.Y.L.<.:.} x m G.m u q 8 7 9 x ] ;.:.:.:.:.:.:.:.:.:.:.:.:.:.:.:.:.:.:.:.:.",
":.:.:.:.:.;.| u 9 u u N B I.Y.X.<...w m N m w 9 7 6 6 x } :.:.:.:.:.:.:.:.:.:.:.:.:.:.:.:.:.:.:.:.:.",
":.:.:.:.:.[ Q q 8 9 9 u w j c ] J.C m m M w 9 8 3 3 3 l  .:.:.:.:.:.:.:.:.:.:.:.:.:.:.:.:.:.:.:.:.:.",
":.:.:.:.:.| R q 8 8 9 9 5 5 y c H.C B n w 8 6 3 3 , 3 l  .*.:.:.:.;.:.:.:.:.:.:.:.:.:.:.:.:.:.:.:.:.",
":.:.:.:.:.,.{ w 8 8 8 7 < e t b A K.n 0 3 3 , , , 3 0 I 1.z.,.:.,.j.z.,.>.:.:.:.:.:.:.:.:.:.:.:.:.:.",
":.:.:.:.:.:.{ x 8 7 7 8 8 5 w l v M 3 , : : : , , 3 U ,.`.`.~. .1.(.'.).2.>.:.:.:.:.:.:.:.:.:.:.:.:.",
":.:.:.:.,.*.| m 0 3 0 P J.' 4 4 P K G G G H J }  . .k.C.)._.C.c.n.)._.).n.x.:.:.:.:.:.:.:.:.:.:.:.:.",
":.:.:.:.*.j.>.L.' ! R ,.x.x.( U H 0.s.s.f.h.g.h.N.B.V.V.V.Z.Z.A.Z.Z.A.A._.c.:.:.:.:.:.:.:.:.:.:.:.:.",
":.:.:.:.*.q.p.C.C.C.v.n.M.M.m.v.f.f.f.g.g.N.h.B.N.B.V.V.N.V.Z.C.C.M.Z.Z.A.c.>.:.:.:.:.:.:.:.:.:.:.:.",
":.:.:.:.[ J e.M.n.x.j.v.m.m.M.m.m.g.g.g.g.N.V.N.m.m.B.B.N._._.(.( z.Z.Z.Z.l.:.:.:.:.:.:.:.:.:.:.:.:.",
":.:.:.;./ [ K l.n.c.x.v.M.M.M.M.g.r.D P.eX}.V.h.N.p.n.}.eXsXsXaXqXwX}.Z.N.k.:.:.:.:.:.:.:.:.:.:.:.:.",
":.:.;.| / / H k.l.M.M.M.Z.M.m.l.x.^.i 5XVXsX'.'._.g.`.aXVXSXAXAXSXSXbX'.Z.v.:.:.:.:.:.:.:.:.:.:.:.:.",
":.,. ...( / /  .l.m.m.M.M.M.p...T.vXnXCXAXAXVXVXbXA.eXNXZXZXZXSXSXSXSXbX'.v.,.>.:.:.:.:.:.:.:.:.:.:.",
":.,.| ..( / R / q.r.r.m.m.p.r./.rXnXBXVXAXAXAXSXVXaXvXlX@XXXhXAXSXSXSXmX'.n.x.:.:.:.:.:.:.:.:.:.:.:.",
"j. ...E T T R Y H q.p.p.p.p.u.[.iXlXgXgXgXhXMXSXSXBXjX<XXX@XdXjXCXZXZXmX`.M.n.>.:.:.:.:.:.:.:.:.:.:.",
" .[ E T L L Y R ( J p.p.p.i.0.].yX4XXX|.|.|.gXMXZXZXdX|..XgXfX@XNXZXZXmX_.g.v.*.:.:.:.:.:.:.:.:.:.:.",
"*.[ E E L L T R R H 7.u.i.t.7.].<XXXoXr e oXr <XCXZXdX|.X X a %XMXNXNXmX).f.p.j.:.:.:.:.:.:.:.:.:.:.",
"| ..E T L L R R T / %.0.u.9.7.W.-X|.+Xr e +X|.&XNXBX@Xr  Xa S qXnXNXNXvXC.s.p.*.:.:.:.:.:.:.:.:.:.:.",
"..( ( ( T T R R Y E H q.t.6.#.P.&XXX#X Xr $X+X1XnXNXU.s OX:X!.N.pXcXnXaXM.d.p.*.:.:.:.:.:.:.:.:.:.:.",
"[ E E E E Y E R Y R E @.6.6.#.` H.Y.@X$X$X$XjXzXzXpX/.K j.q.0.r.qXuXqX}.N.f.g.>.>.:.:.:.:.:.:.:.:.:.",
"..( ( E Y Y Y R Y Y Y [ &.6.#.O.O.=.K.Y.:X4X0XyXrX^. .%.3.K q.K 7X^.k.v.f.h.B.n.k.:.:.:.:.:.:.:.:.:.",
"X.{ ..E R R T R Y Y Y Y H #.$.$.O.o.o.-.P.>X>X!./.w.@.H H J K q.x.k.6.y.s.h.h.g.k.*.:.:.:.*.w.e.e.k.",
"*.:.} E R T T R R T T T / H H O.o.o.o.+.$.G.G.) G 7.*._ d ..1.v.u.6.9.y.a.d.d.d.e.>.:.:.>.&.6.u.p.p.",
":.:. ...E R T R R T L T E / %.$.$.O.+.O.d & $ $ 3 L.E.Q 6 >XzXaXe.6.t.t.i.a.a.a.e.,.,.>.$.&.8.@.&.8.",
":.:.:.| [ E T T T I L L Y / G G -.O.+.+.G & + + 1 7XiX;X; 3XBXvXl.6.y.y.a.a.a.s.}.wX[.1.-.O.$.` _ +.",
":.:.:. ...' R T T T L L T / K @.%.$.#.6.+.+ + O - *X,XC = U.7X{.r.t.y.y.a.a.a.s.aXnXtX].<.` ^ ~ ` H ",
":.:.:.,.!.P.J.D.D.! L T T Y [ #.4.4.t.t.+.$ O O O O @ O O X k 8.u.y.i.a.y.y.y.s.wXzXtXqXE.-.` ` { ;.",
":.:.:.:.,.[.zXuXyXT.W L I T / @.6.t.y.y.+.+ O   .     . . . f t.y.i.p.i.y.t.t.u./.W.1.k.j.-._ } :.:.",
":.:.:.,.^.qXNXnXlX3XF.W I T Y J 7.t.t.y.#.F b b b b b 5     f t.y.i.i.t.t.5.q.q.1.L.' -.$.-.{ -.:.:.",
":.>.q.>./.tXxXxXlX2XU.L P I U [ &.t.y.y.i.u.b.6X6X6XQ.V @ # D y.y.t.t.9.6.&.K &.*.[ G.~ ` ` | ;.:.:.",
":.e.r.%.} W.lXlX5X=Xm W I I I / K 9.9.9.y.y.0.(.8X8X8XY.$ G 8.t.t.t.t.9.7.7.5.4.@.%.-.;.;.;.;.:.:.:.",
":.l.l.| *.T.4X4XT.S.W L L P I / K 5.e.0.9.q.5.e.R.b.b.2.G 5.t.t.t.9.9.0.e.w.4.4.%.J :.:.:.:.:.:.:.:.",
"*.1.P.F...L.T.T.J.R I I P I I Y H 5.e.0.0.K q.3.#.6.6.6.u.6.9.6.6.6.6.6.*.| ..L.| ;.:.:.:.:.:.:.:.:.",
":.P.XXs ..:.*.:.:.{ I I I P I U [ 3.0.t.0.K K q.9.6.6.6.5.#.#.8.k.k.k.j.} J.U.,XP.:.:.:.:.:.:.:.:.:.",
":.E.E.*.3.%._ ;.*.{ I P I Q U I ( J 4.6.0.r.8.8.6.4.8.#.@.l ! ~.tXpXpXtXK.Y.yXrXE.:.:.:.:.:.:.:.:.:.",
">.z.b.8.7.%.} :.:.{ P P P P P L I ( G #.7.w.J ] P.P.E.qX[.J.` R.,XkXkX*Xi I.>XyXE.:.:.:.:.:.:.:.:.:.",
":.k.w.@.%.$.:.:.:.} ( Y I W x S.F.D.L.P.R.<.V N C =X5XnXxXK.Q F.&X,X;Xi y n V Y.L.:.:.:.:.:.:.:.:.:.",
":.$.$.H _ } :.:.:.:.;.:.( W u U.,X:X2XrXuX3X*XZ H.*X4XzXyXs r +X4XU.j j M z 4 6 ) :.:.:.:.:.:.:.:.:.",
":.;.*.;.} ;.:.:.:.:.:.:.P.,X=X2X4X1XhXkXlXkXY.Y.9X3XU.n B .X Xr +XI.k ; h h g g ^ :.:.:.:.:.:.:.:.:.",
":.:.;.:.:.:.:.:.:.:.:.:.P.=XU.&X-X*X;X;X;XY.V B ;X;XM k 0 .Xr e  Xs l 1 h g g h ` :.:.:.:.:.:.:.:.:.",
":.:.:.:.:.:.:.:.:.:.:.:.~ 5 y y s i n j g g g g g z v f : r t = r p y h g h g g ` :.:.:.:.:.:.:.:.:.",
":.:.:.:.:.:.:.:.:.:.:.:.k @ * * = ; ; ; & - = - - = $ $ @ - - @ o ; g h g g g 4 ^ *.:.:.:.:.:.:.:.:.",
":.:.:.:.:.:.:.:.:.:.:.:.~ 5 1 ; ; ; % % & ; 1 1 ; * $ 1 & & & % @ > k ^ ^ ^ ~ ~ } :.:.:.:.:.:.:.:.:.",
":.:.:.:.:.:.:.:.:.:.:.:.] c 4 2 2 ; $ % & 2 g 2 2 @ 2 h g > & ; & g ~ *.:.:.:.:.:.:.:.:.:.:.:.:.:.:.",
":.:.:.:.:.:.:.:.:.:.:.:.:.` j 4 2 > > > 2 2 2 ; $ $ g z z > $ & g ~ -.:.:.:.:.:.:.:.:.:.:.:.:.:.:.:.",
":.:.:.:.:.:.:.:.:.:.:.:.:.:.{ ` H _ _ ` ` v 2 ; $ & 4 4 : k 4 1 g ^ :.:.:.:.:.:.:.:.:.:.:.:.:.:.:.:.",
":.:.:.:.:.:.:.:.:.:.:.:.:.:.:.:.:.:.:.:.;.] k ; # k D F f F ~ f ~ ' D.J.| *.:.:.:.:.:.:.:.:.:.:.:.:.",
":.:.:.:.:.:.:.:.:.:.:.:.:.:.:.:.:.:.:.-.| ] z 1 - ! j.3. .X. .:.` m i u { ,.:.:.:.:.:.:.:.:.:.:.:.:."
};
