/* XPM */
static char *_ec31740d15a4e22e0241700d8fd2fa7dVShMWaFhVB65deA[] = {
/* columns rows colors chars-per-pixel */
"50 50 256 2 ",
"   c #1F1A00",
".  c #3B0700",
"X  c #072902",
"o  c #083800",
"O  c #450600",
"+  c #4B0700",
"@  c #530A00",
"#  c #5C0A00",
"$  c #571901",
"%  c #690700",
"&  c #770103",
"*  c #6C1200",
"=  c #691900",
"-  c #731500",
";  c #771800",
":  c #7C1B00",
">  c #642809",
",  c #792301",
"<  c #6E3617",
"1  c #57013A",
"2  c #521031",
"3  c #662323",
"4  c #0E4600",
"5  c #134B06",
"6  c #165800",
"7  c #275F18",
"8  c #1A6300",
"9  c #1C6C00",
"0  c #1E7300",
"q  c #246D0C",
"w  c #257802",
"e  c #6F482E",
"r  c #4E6320",
"t  c #5E0043",
"y  c #6D054D",
"u  c #770454",
"i  c #6F5B44",
"p  c #787259",
"a  c #5A696F",
"s  c #8E0C09",
"d  c #831B00",
"f  c #8E1F00",
"g  c #A0141D",
"h  c #882700",
"j  c #8C2400",
"k  c #972400",
"l  c #942B00",
"z  c #9A2B00",
"x  c #8B3A0C",
"c  c #973401",
"v  c #A62A00",
"b  c #B12B00",
"n  c #A43600",
"m  c #A83700",
"M  c #AB3C00",
"N  c #BA3900",
"B  c #AC0E2A",
"V  c #CB1509",
"C  c #FE1402",
"Z  c #D22E0E",
"A  c #F73011",
"S  c #CF242A",
"D  c #92470F",
"F  c #AA4304",
"G  c #B74802",
"H  c #B95406",
"J  c #B35614",
"K  c #8D542B",
"L  c #B06E2F",
"P  c #C34901",
"I  c #D04D0D",
"U  c #C95704",
"Y  c #D45B05",
"T  c #F25415",
"R  c #D86509",
"E  c #CE6912",
"W  c #D66C14",
"Q  c #DC7719",
"!  c #E46A0A",
"~  c #E7720D",
"^  c #F16E15",
"/  c #E77A17",
"(  c #F87716",
")  c #EF512B",
"_  c #DD6F2E",
"`  c #ED732C",
"'  c #8B0558",
"]  c #9F1E5A",
"[  c #94066A",
"{  c #8C256E",
"}  c #CB2463",
"|  c #90724C",
" . c #AB6F57",
".. c #E6644D",
"X. c #298600",
"o. c #32950A",
"O. c #3AAC0C",
"+. c #39A916",
"@. c #2F9B2C",
"#. c #36B12D",
"$. c #4DB402",
"%. c #4D982B",
"&. c #39CC32",
"*. c #54C900",
"=. c #6BD806",
"-. c #6CEB01",
";. c #289C56",
":. c #4FAF5E",
">. c #7C8C79",
",. c #4ACF4E",
"<. c #43D345",
"1. c #6ECC78",
"2. c #A2B209",
"3. c #CA8C14",
"4. c #FF8A0C",
"5. c #E8841B",
"6. c #EA831D",
"7. c #F88717",
"8. c #FF9A13",
"9. c #FD9619",
"0. c #FFA51B",
"q. c #FFB218",
"w. c #DC8B29",
"e. c #EC8924",
"r. c #F98A26",
"t. c #FC9726",
"y. c #EF8E35",
"u. c #F99936",
"i. c #FEA728",
"p. c #FFB629",
"a. c #FFB42C",
"s. c #E6AD36",
"d. c #FEA737",
"f. c #FFB433",
"g. c #FEBB38",
"h. c #8FFD04",
"j. c #A4FF0B",
"k. c #BCFF18",
"l. c #91CF22",
"z. c #D7FF0C",
"x. c #FFCA31",
"c. c #FFC53B",
"v. c #FFE937",
"b. c #AD9871",
"n. c #F6944B",
"m. c #FFAC45",
"M. c #FFB846",
"N. c #F2B34A",
"B. c #FFB855",
"V. c #D99C69",
"C. c #FEBD62",
"Z. c #ADE069",
"A. c #EDC043",
"S. c #FEC748",
"D. c #FFD34C",
"F. c #FFC855",
"G. c #FFD656",
"H. c #FFEF4F",
"J. c #C4D477",
"K. c #FFC768",
"L. c #FFDB65",
"P. c #F8C475",
"I. c #FFD677",
"U. c #FFE56A",
"Y. c #FFFA67",
"T. c #FFE377",
"R. c #FFFB75",
"E. c #FFFE7B",
"W. c #1D59B1",
"Q. c #656397",
"!. c #0B53C6",
"~. c #1557CD",
"^. c #0D5AD0",
"/. c #0F67D5",
"(. c #286FCE",
"). c #094AF7",
"_. c #0A54FD",
"`. c #0B5CFC",
"'. c #2A52F0",
"]. c #106EEA",
"[. c #0E64F7",
"{. c #0D63FC",
"}. c #0E6CFC",
"|. c #116DFB",
" X c #0F73FB",
".X c #1174FB",
"XX c #1D75FA",
"oX c #127CFB",
"OX c #2878F5",
"+X c #427CC4",
"@X c #D0008A",
"#X c #E81590",
"$X c #CD309B",
"%X c #FF25BA",
"&X c #8E4185",
"*X c #B34791",
"=X c #EC649E",
"-X c #FF30C1",
";X c #FF37E6",
":X c #FF5FFD",
">X c #209A8A",
",X c #5C99A6",
"<X c #72D095",
"1X c #2B9FDF",
"2X c #1385EF",
"3X c #1789F7",
"4X c #1384FB",
"5X c #158CFA",
"6X c #1694FA",
"7X c #1997F9",
"8X c #179AFA",
"9X c #189CFA",
"0X c #2A94F5",
"qX c #19A0FA",
"wX c #4E97D2",
"eX c #468BF6",
"rX c #5397F0",
"tX c #5899F5",
"yX c #58AAEA",
"uX c #5EA7F4",
"iX c #61ACF4",
"pX c #61B2F4",
"aX c #52C9F8",
"sX c #89A998",
"dX c #B1AA87",
"fX c #8BB2AC",
"gX c #A0A0A3",
"hX c #FD909C",
"jX c #CFBC91",
"kX c #EDA893",
"lX c #F1B29A",
"zX c #F5B8A4",
"xX c #A7D09E",
"cX c #8CCABA",
"vX c #FFD987",
"bX c #E4D495",
"nX c #FFEA88",
"mX c #FFFD84",
"MX c #FFEB97",
"NX c #FFF39A",
"BX c #D2CBA9",
"VX c #EDCBAE",
"CX c #FEEBA7",
"ZX c #FFF8A6",
"AX c #FFFCB4",
"SX c #FFFDBB",
"DX c #9EB7CA",
"FX c #FB9ADD",
"GX c #9EE3E9",
"HX c #CBD4D1",
"JX c #F8D8CA",
"KX c #FEFEC7",
"LX c #F3EFD3",
"PX c #DFE0F3",
"IX c #F2F0EA",
"UX c #FEFCF8",
/* pixels */
"..lXVXJXJXJXJX'.).)._.`.{.{.}.}.}.}..X.X.X.X.X.X.XoX.XoX.X.XoX.X.X.X X X{.{.+.+.GXJXVXbXIXUXHXNXLXIX",
"lXVXJXIXUXIXIXzX).'._.`.}.}.}. X X X.X.XoX.X4XoXoX4XoX4X4X4X4X4XoX.X.X.X}.+.&.#.#.DXUXbXLXPXLXPXKXIX",
"kXzXJXJXIXJXJX) Q.).[.|.}..X.X.X.X.X4XoXoX4X4X4X4X4X5X4X4X5X4X4X4X4X4X.X.X<.<.<.&.+.HXHXPXIXBXPXBXKX",
"kXzXzXJXJXkXA ) ) [..X.X.XoXoX4X4X4X4X5X5X5X5X3X5X5X5X5X5X5X5X5X5X5X4X4X4X#.,.&.&.&.+.HXHXLXLXLXIXLX",
"kXkXzXzX .A ) ..n.].XXoX4XoX4X5X5X5X5X5X6X5X6X5X6X6X6X6X6X6X6X6X6X6X5X5XoX#.X 7 &.&.#.Z.GXLXjXVXbXb.",
"zXkXkXkXS Z C...` 4X.X4X3X3X5X5X5X6X6X6X6X6X8X6X6X7X7X8X8X8X8X6X8X9X6X5X5X%.,.,.<.<.&.+.gXBXjXjXbXdX",
"!.zXlXZ V n.` ) V 4X3X5X5X5X6X6X6X6X8X9X9X8X9X2X9X9X0X9X9X9X9X9X9X,X7X7X6X5X#.,.<.,.&.+.,.jXjXjXdXDX",
"!.!.!.A V ) S ) ) V 4X5X6X6X8X9X8X8X9XqXqXqX1XV.y.n.V.J.wXqXqXqX9X9X9X8X8X7X>Xq <.<.&.#.+.HXgXsX~.^.",
"!.!.!.!.n.) W.T ..Z Q.qX7X7XqX0X7X6Xy.r.r.r.y.! Q E J H F D K | b.9XqXqXqX9X7X#.@.#.&.#.o.fXPX^.^.{.",
").).!.!.^.!.!.!.T ..) qX7X7XqXn.u.B.vXvXvXP.C.m.s.w./ E J J F x e e p fXqXqXqX/.;.@.@.o.o.W.!.].}.}.",
"_.`._.[. XoX].^.!.3Xg 0X9Xr.u.K.MXCXCXCXCXy.I.K.m.u.e./ W Y U J L x e e p cXqXqX/./.;.#./.^.oXoX.X X",
"`.[.|. XoX4X4X5X2X7XqX` t.M.I.nXCXSXSXKXCXCXI.K.B.u.t.G / R E U H F c , < e xXqXqXqX].^.^.5X4X4XoXoX",
"}.}. XoX4X4X5X5X7X7X( 9.M.G.I.MXAXKXKXKXSXZXnXI.B.d.u.7./ ~ R Y P F n x , > < >.aXqXqX8X6X5X5X4X4XoX",
" X X XoX4X4X5X6X7X( 9.a.S.D.T.NXSXSXSXAXAXZXnXK.B.d.t.r.( ~ ! Y U G F l h , > K >.GXqX8X8X6X6X5X5X4X",
"oX X4X4X4X5X6X5X( 4.i.p.S.G.L.NXZXZXZXZXNXnXI.K.B.m.t.r.B./ ~ R U H F c h , , > e sXaX8X8X6X6X6X5X5X",
"oX4X4X4X5X5X6X,X4.8.i.p.c.S.L.T.nXnXnXnXnXT.L.F.M.d.t.r.( ( ~ R Y U G c c h ; $ 3 i <XqX9X8X6X6X5X5X",
"oX4X4X5X2X7X7X( 4.8.i.p.c.c.D.U.U.T.U.U.L.L.F.B.m.d.t.u.( ~ ~ ! Y U G M l h , = > e >.GXqX9X8X6X6X5X",
"4X4X5X5X6X7X9X4.4.8.0.AXp.c.D.D.G.G.L.G.G.S.M.M.d.t.7.7.( / ! ! Y U G M c h h = = < p <XqX9X9X8X6X6X",
"4X5X5X6X6X7X7X8.8.9.8.q.p.g.x.c.u.D.D.F.M.f.( u.t.7.7.~ ~ ! Q Y Y H G m z h , = $ < K fXqXqX8X8X6X6X",
"5X5X5X6X8X7X0X0.0.8.0.0.i.p.p.g.g.g.S.g.f.i.t.9.7.7.( ~ ~ W R Y U G M c l h : ; $ > i fXqX9X9X8X6X6X",
"5X5X6X6X8X7XqXa.B.8.i.8.8.i.g.g.g.f.f.i.f.t.9.7.7.7.n.W ~ R R Y U G m c h h , ; > > i sXqX9X9X8X6X6X",
"5X5X6X6X7X9XqXg.a.8.D.8.0.D.p.S.g.f.f.f.f.d.i.i.t.t.9.7./ Q R R E w.H H H G F c L D | xXqXqX9X8X8X6X",
"5X6X6X6X7X9X9Xu.f.a.S.f.g.G.G.S.S.c.g.S.S.S.D.S.S.S.d.f.N.d.e.e.Q Q Q Q J J J D < 3 | xXqXqX9X8X6X6X",
"6X6X6X8X7X9XqXhXZ % W 5.5.6.7.7.r.t.t.e.e.e.e.e.6.5.6.5.5.e.5.5.e.Q E Q E k & & s s B =XqXqX9X8X6X6X",
"5X6X6X8X8X5Xb S zXhX..A r.C C A ` A ) ) ) s s =.# # > 0 # % % % & & s B $.B ] } } =X} B gXqXqX8X6X6X",
"6X6X8X8X9XGXh.V C %.) ^ ( ` T A C hXV.V s 2.9 9 6 9 9 9 4 6 o.o.8 s s 9 5 o g B g S g r 5 >XqXqX8X6X",
"6X6X8X8X9X9X5 9 6 9 Z.O.O.Z.w w w X.X.w o.w 9 9 5 o 4 4 5 6 8 5 X.o X X o o 5 o 5 4 o 6 q wX8X8X6X6X",
"6X6X6X9X9X9XO.O.w 6 6 4 5 9 w w X.w O.-.*.$.h.h.h.-.2 3 o.=.$.w 9 X.9 8 8 5 8 X 4 6 6 q 7 :.qX8X8X6X",
"6X6X8X8X9XHXk.j.-.$.j.$.h.j.k.=.J.l.j.' jXy y { u ' [ [ y ' ' t 2 2 y 1 y 1 y 5 8 i q 7 ,X<XqX8X6X6X",
"5X6X6X6X8X9X9XZ.&X$XUXUXIXPX| UXFXFX[ [ u @X@X-X-X@X@X-X@X' ' t 1 1 1 1 y u u u { *X*X{ u 8XqXqX8X6X",
"5X6X6X8X8X8X8X$X#XFX:X;X%X%X%X#X=X#X} F L.R.R.E.nXR.Y.Y.U.F.e.G v m n M F c c K { { { &XDX8X8X6X6X6X",
"5X5X6X5X6X8X8XPXmX/ H G m v G W d.D.a.f.x.Y.mXUXAXE.G.H.Y.Y.g.P G N + = Z P P U W w.b.qX9X8X7X6X6X5X",
"5X5X5X5X7X7X7X8XU.c.F f * x.H.H.x.* k N k * v.Y.R.H./ * L  .= + @ % = * * + O Z N P dX8X8X8X6X6X6X5X",
"4X5X5X5X5X6X7X7XK * & r.i.Y  .b.d T i.f.t.^ VXv.v.p.- ^ 5.Z Y d - - * ; * @ + O N F p 9X8X8X8X5X5X5X",
"4X4X4X5X5X5X6X7X* d k k b v v k b _ VXn.lX_ j q.9.E - * Y % % @ # * @ + O . . O O $ qXqX8X6X5X5X5X5X",
"4X4X4X4X5X5X6X7Xd d k k v N I I ^ ( ( P G ~ I G c h d ; d d k * * # @ O . O . O + $ yXqX6X6X5X5X4X4X",
"oXoXoX4X5X5X3Xj.X.d - d b f N I Z ! ! u.W G ` R / b k k f v d ; f * % @ @ + + + @ p 7 1.6X5X4X4X4XoX",
" XoXoX4X4X4X1X-.=.X.$.o.*.8 X . = * * * * * * * * - : * # @ @ @ @ + O . .   o o 0 w +.1.5X5X4X4X4XoX",
" X XoX4XoX4X4Xz.$.h.j.k.c s.U.D x mXE.mXE.mXE.E.E.R.R.E.R.R.R.U.N.A.c.c.w.5.5.s.w o.%.1.5X4X4X4XoX.X",
" X X XoXoX4X4XmXH z.3.9.= j z , - ; H 9.i.I.SXIXUXUXUXKXKXZXF.g.@ = - - , ; $ @ R i.w :.4X4XoX X.X X",
"|.|..X.XoXoX3XUXmXU E n.B.C.P.K.B.m.y.U l f 9.9.9.i.t.9.9.D ; d h l c n z j ; ; - # ~ S.4XoXoX X X}.",
"}.}.}..X.XoXUX8.W u.B.vXKXKXUXUXIXKXCXvXP._ j P.9.4.f.9.* h n Q e.y./ n.n.G j ; ; ; * e.GX X X X}.}.",
"{.}.}.|.|.rXeXVX! u.B.I.I.I.I.I.I.MXI.I.vXI.u.F J 7.0.j z y.K.K.B.B.y.w.E J j : ; : d | HX0X}.}.{.{.",
"{.{.{.}.XX(.rXrXR 6.t.u.d.M.B.S.F.F.F.B.B.B.d.u.J j k F / / e.e.e./ Q I H m z j d d h +X0X(.OX{.{.{.",
"{.{.{.{.eXtXtXtXa U R R W e.Q Q 5./ 5./ 6.6.6./ / Y U Y Y Y R Y U U G m n z z z k l K eXeXeXOX{.`.`.",
"{.`.{.{.}.OXtXtXiXrXa M M M M F M G G G H P H H G G N M M m n n c z l z h c x x a wXtX~.eXeX`.`.`.`.",
"`.{.`.{.{.}.}.OXtXtX(.yXuXyX,Xa e k h l z z c z z l j h j j j j h , e a Q.yXtXtX~.rXtXtX{.{.`.`.`.`.",
"`.`.`.`.`.[.}.|.|..XtXuXiXuXwX(.pXpXpXpXpXpXpXpXuXpXpXpXiXiXiXiXuXuX(.(.uXiXtXtXXX[.{.[.{.`.`.`._._.",
"`.`.`.`.{.{.{.|.|..X.XoX4X3XuX5X5XiXpXpXpXpXpXpXpXiXpXiXuXiX0XiXuXtXoXiXtX.X.X}.}.}.{.{.`.`._._._._.",
"`._.`.`.`.`.{.}.|..X.XoXoX4X3X3X5X5X5X5X5X5X6X5X5X5X5X5X5X4X4XoXoXoXoX.XXX}.}.}.{.{.`.`.`.`._._._._."
};
