/* XPM */
static char *_3258f83986c420394cce83aac5632c6wEP0DCDjHVGHVhnn[] = {
/* columns rows colors chars-per-pixel */
"50 48 155 2 ",
"   c #3A0B0A",
".  c #470402",
"X  c #56312B",
"o  c #523A34",
"O  c #55413A",
"+  c #5C4840",
"@  c #674845",
"#  c #605941",
"$  c #685E59",
"%  c #7E6358",
"&  c #505568",
"*  c #656965",
"=  c #7C6D6C",
"-  c #6F766A",
";  c #6F7C71",
":  c #6B727B",
">  c #737A71",
",  c #815F15",
"<  c #986C0D",
"1  c #A27C1B",
"2  c #8B6826",
"3  c #824345",
"4  c #8C7357",
"5  c #837164",
"6  c #977371",
"7  c #798475",
"8  c #79847C",
"9  c #768D7C",
"0  c #7C8C7E",
"q  c #A18738",
"w  c #CA910C",
"e  c #D79701",
"r  c #DB9A04",
"t  c #DD9D0D",
"y  c #C5931C",
"u  c #D19B19",
"i  c #E29F01",
"p  c #D9A11F",
"a  c #E6A101",
"s  c #E6A30E",
"d  c #E6A61A",
"f  c #C79525",
"g  c #D9A52A",
"h  c #CFA13D",
"j  c #D9AE37",
"k  c #E5AA25",
"l  c #E6B037",
"z  c #E7B138",
"x  c #AE8C49",
"c  c #818D7E",
"v  c #918677",
"b  c #9D9C79",
"n  c #D3A643",
"m  c #777A81",
"M  c #757F90",
"N  c #C77D84",
"B  c #7D8A86",
"V  c #7E9080",
"C  c #808882",
"Z  c #878D88",
"A  c #889887",
"S  c #879389",
"D  c #879789",
"F  c #869A89",
"G  c #9A9589",
"H  c #818699",
"J  c #929995",
"K  c #979898",
"L  c #90A28E",
"P  c #8FA293",
"I  c #93A493",
"U  c #98AA9A",
"Y  c #95B79F",
"T  c #9DB49A",
"R  c #B4A69D",
"E  c #A8BE9E",
"W  c #B2B494",
"Q  c #848AA0",
"!  c #8A94A9",
"~  c #999CA9",
"^  c #8F97BD",
"/  c #9FABA0",
"(  c #9EB5A2",
")  c #96B8A0",
"_  c #9ABEA5",
"`  c #A5A7A5",
"'  c #A4A9A5",
"]  c #A1B5A4",
"[  c #A4BAA7",
"{  c #A7B7A9",
"}  c #AAB3AC",
"|  c #A5BDAA",
" . c #ADB9AF",
".. c #BFB8AD",
"X. c #A7ABB5",
"o. c #B2B5B3",
"O. c #B2BDB4",
"+. c #BBBDBB",
"@. c #D09597",
"#. c #A5C2AC",
"$. c #A9C3AE",
"%. c #BCC8A7",
"&. c #AEC5B2",
"*. c #AFC9B3",
"=. c #B2CBB6",
"-. c #BDC3BE",
";. c #B3CCB9",
":. c #BACCBD",
">. c #B6D2BC",
",. c #B9D5BE",
"<. c #C3C69B",
"1. c #C9CFA8",
"2. c #E5E7B2",
"3. c #FAFABE",
"4. c #919AC2",
"5. c #9CA5D2",
"6. c #A3AAD1",
"7. c #B7D0C0",
"8. c #BED6C2",
"9. c #BEDAC3",
"0. c #C3C6C4",
"q. c #C6CAC6",
"w. c #CBCBCB",
"e. c #C1D5C4",
"r. c #C1DEC6",
"t. c #C7D5CA",
"y. c #CCD3CD",
"u. c #C4DDC9",
"i. c #C9DCCD",
"p. c #CEDED1",
"a. c #D4D5D4",
"s. c #D3DCD5",
"d. c #D7D8DB",
"f. c #DDDDDD",
"g. c #E0DFD8",
"h. c #C2E0C7",
"j. c #C5E1C9",
"k. c #CAE3CE",
"l. c #CDE3D1",
"z. c #D2E4D5",
"x. c #D3E8D6",
"c. c #D7E5D9",
"v. c #DEE3DE",
"b. c #E1EEC0",
"n. c #DFEBE1",
"m. c #E2E3E2",
"M. c #E6E9E6",
"N. c #E5E6E8",
"B. c #E7E8E9",
"V. c #EDEDED",
"C. c #ECF0EC",
"Z. c #F3F3F3",
"A. c #F6F8F6",
"S. c #F8F8F7",
"D. c #F9F9F9",
/* pixels */
"D.V.D.D.B.D.V.D.Z.V.S.V.D.V.D.V.D.V.V.D.V.A.m.A.Z.N.D.B.A.V.V.A.V.D.V.Z.Z.Z.Z.Z.D.V.Z.V.Z.D.B.D.V.D.",
"V.D.V.V.D.V.D.V.Z.Z.Z.Z.V.D.V.Z.V.D.D.m.A.] D r.j.r.j.r.D 0.Z.V.D.V.D.V.V.Z.Z.Z.V.D.V.D.Z.V.D.B.D.V.",
"A.V.Z.A.V.S.V.S.Z.V.Z.V.Z.Z.Z.Z.Z.Z.m.Z ;.h.h.h.h.h.h.r.9.r.e.v.V.D.Z.Z.Z.Z.Z.Z.A.Z.Z.V.Z.S.V.S.V.D.",
"A.V.A.Z.V.Z.V.S.Z.Z.Z.Z.Z.V.S.V.Z.m.> O.h.>.9.h.h.8.h.h.h.,.[ u.f.Z.V.Z.Z.Z.Z.V.Z.V.D.V.Z.Z.V.D.V.D.",
"B.D.Z.V.D.V.S.V.Z.Z.Z.Z.Z.Z.V.Z.Z.K &.r.9.9.;.h.j.I *.r.h.h.h.,.7.V.D.V.Z.Z.Z.D.V.D.V.Z.Z.V.D.B.D.B.",
"D.V.Z.Z.V.S.V.S.Z.V.Z.Z.Z.V.D.Z.Z.O.>.h.$.*.9.r.,.$.9 ,.h.h.h.h.c.Z.V.Z.Z.Z.V.V.D.V.D.V.D.Z.V.D.V.D.",
"V.D.Z.Z.D.V.D.V.Z.Z.Z.Z.V.D.V.Z.Z.:.7.h.r.$.#.$.F #.F *.h.h.h.h.p.Z.D.Z.Z.V.Z.Z.V.D.V.Z.V.V.D.V.D.V.",
"D.V.Z.Z.V.Z.Z.Z.Z.Z.Z.Z.Z.V.Z.Z.Z. .>.h.r.9 ) _ 9 _ Y ; h.h.h.h.d.Z.V.Z.Z.Z.Z.Z.S.V.Z.Z.Z.D.V.D.V.S.",
"Z.Z.Z.Z.Z.Z.Z.Z.Z.Z.Z.Z.Z.Z.Z.Z.Z.w.{ ,.r.T A T L 7 E ; h.r.;.c.V.Z.Z.Z.Z.Z.Z.Z.Z.Z.Z.Z.Z.Z.Z.Z.Z.Z.",
"V.Z.Z.Z.Z.V.Z.Z.Z.Z.Z.Z.Z.Z.V.Z.Z.Z...i.| W b <.W 4 2.$.[ i.1.Z.Z.V.Z.Z.V.Z.Z.Z.V.Z.Z.Z.V.V.D.V.Z.V.",
"Z.V.Z.Z.Z.Z.Z.Z.Z.Z.Z.V.Z.Z.Z.Z.Z.Z.Z.Z.o.y.1.b.%.3.<.,.' Z.Z.Z.Z.Z.Z.Z.Z.Z.Z.V.D.V.Z.V.Z.Z.V.S.Z.Z.",
"Z.Z.Z.Z.Z.V.Z.Z.Z.Z.Z.Z.Z.Z.V.Z.Z.Z.Z.Z.Z.s.[ r.*.b.U h.c.n.B.Z.Z.Z.Z.Z.Z.Z.Z.Z.Z.Z.Z.Z.Z.Z.Z.Z.Z.Z.",
"D.V.Z.Z.V.D.Z.S.V.Z.Z.Z.Z.V.Z.Z.Z.Z.Z.q.t.,.r.h.,.P 5 5 5 Z s.A.V.D.V.Z.Z.Z.Z.V.D.V.Z.V.Z.D.B.D.V.D.",
"V.Z.Z.V.S.V.Z.V.Z.Z.Z.Z.V.D.Z.Z.V.Z.+.- D 8.r.r.% X .   3 6 i.Z.D.V.D.V.Z.Z.Z.Z.V.D.V.D.Z.V.D.V.S.V.",
"Z.Z.Z.Z.Z.Z.Z.Z.Z.Z.Z.V.Z.Z.Z.Z.Z.Z. .O - ,.h.r.o + @ @ N @.l.Z.Z.Z.V.Z.Z.V.Z.Z.Z.V.Z.Z.Z.Z.V.Z.V.Z.",
"Z.Z.Z.Z.Z.V.Z.Z.Z.Z.Z.Z.Z.Z.V.Z.V.Z.{ $ > ,.h.9.* I ' = R ..t.Z.Z.V.D.Z.Z.Z.Z.Z.Z.D.V.Z.Z.V.D.V.S.V.",
"S.V.S.Z.V.Z.Z.Z.Z.Z.Z.Z.D.V.Z.Z.A.Z.a.a.q.e.u.S } 8.B.0.m.c.m.A.Z.Z.V.Z.Z.Z.V.Z.D.V.D.V.Z.S.V.S.V.Z.",
"Z.Z.Z.Z.Z.Z.Z.Z.Z.Z.Z.Z.V.Z.Z.Z.V.Z.Z.Z.Z.m.V.w.V.j.C.Z.Z.Z.Z.Z.Z.Z.Z.Z.Z.Z.Z.Z.V.Z.Z.Z.Z.Z.Z.Z.Z.Z.",
"B.D.V.V.D.V.Z.V.Z.Z.V.Z.Z.D.V.Z.V.D.Z.V.S.V.S.Z.V.k.V.A.V.S.A.V.Z.V.D.V.V.Z.Z.D.V.D.V.D.V.V.D.V.D.V.",
"D.V.S.Z.V.D.V.S.Z.V.Z.Z.Z.V.D.V.A.V.V.D.V.D.V.m.n g x V.D.V.V.A.V.D.V.D.Z.Z.Z.V.D.V.Z.V.S.S.B.D.V.D.",
"B.D.V.Z.D.V.D.V.Z.Z.Z.Z.V.D.V.Z.V.D.D.V.D.B.D.a., < 2 D.V.Z.A.V.D.V.D.V.Z.Z.Z.D.V.D.V.D.V.V.D.V.D.B.",
"D.V.D.Z.V.D.V.D.Z.V.Z.Z.D.V.D.V.D.V.Z.D.V.D.v g r r r z f.V.V.S.V.D.V.Z.Z.Z.V.V.D.V.Z.V.D.D.V.D.B.D.",
"V.S.Z.Z.Z.V.D.V.Z.Z.Z.Z.V.Z.V.Z.V.Z.Z.V.Z.h t w i i w s l V.Z.V.Z.V.Z.Z.Z.V.Z.Z.V.Z.V.Z.V.Z.D.V.S.V.",
"V.D.V.V.D.V.Z.V.Z.Z.Z.Z.Z.Z.Z.D.Z.Z.Z.V.m.k i i a a i i p o.S.Z.D.V.Z.Z.Z.Z.Z.Z.V.D.Z.D.V.Z.Z.V.S.Z.",
"D.B.D.S.V.S.V.S.Z.V.Z.Z.Z.V.D.V.A.V.Z.D.[ L 1 a a a d g.c e.M.D.V.D.V.Z.Z.Z.V.Z.D.V.S.V.S.D.B.D.B.D.",
"V.D.V.V.D.V.S.V.Z.Z.Z.Z.V.D.V.Z.V.A.V.e.9.v.G p a a d S.m.=.A V.D.V.S.V.V.Z.Z.D.V.D.V.D.V.V.D.V.D.B.",
"D.V.D.S.V.S.V.D.Z.Z.Z.V.D.V.Z.Z.Z.V.I =.-.Z.f a a a d a.m./ z.S.V.D.V.Z.Z.Z.Z.V.S.V.Z.V.S.D.V.D.V.D.",
"B.D.V.V.D.V.D.B.Z.Z.Z.Z.V.D.V.Z.V.D.x.r.0 y.d a a a d q.A u.z.V.D.V.D.V.Z.Z.Z.Z.V.D.V.D.V.V.D.B.D.B.",
"Z.Z.Z.Z.Z.Z.Z.Z.Z.Z.Z.Z.Z.Z.Z.Z.Z.Z.f.z.,.*.y e e u j r.7.l.Z.Z.Z.Z.Z.Z.Z.Z.Z.Z.V.Z.Z.V.Z.Z.Z.Z.Z.S.",
"D.V.Z.Z.V.Z.V.D.Z.Z.Z.Z.Z.V.A.Z.A.V.V.D./ 7.# q q A 9.#.Q f.V.A.V.D.V.D.Z.Z.V.Z.D.V.D.V.Z.S.V.D.V.D.",
"V.D.Z.Z.D.V.S.V.Z.Z.Z.Z.V.D.V.Z.V.Z.Z.m.O.8.S 9.j.k.,.B ! U M.V.Z.V.D.V.Z.Z.Z.Z.V.D.V.D.Z.V.S.V.S.V.",
"D.V.Z.Z.V.Z.Z.Z.Z.V.Z.Z.Z.V.A.V.A.Z.Z.:.l.u. .9.h.h.i.i.z.t.s.S.V.D.V.Z.Z.Z.Z.V.D.V.Z.V.Z.Z.V.S.V.S.",
"V.Z.V.Z.D.V.S.V.Z.Z.Z.Z.V.Z.Z.Z.V.D.Z.O.V.f.S.p.u.8.m.f.V.Z.A.V.S.V.S.Z.Z.Z.Z.Z.V.S.Z.Z.V.Z.D.V.D.V.",
"D.V.S.Z.V.Z.V.D.Z.Z.Z.V.Z.Z.Z.Z.A.V.V.D.V.A.V.-.u.=.A.V.D.V.V.S.Z.Z.V.Z.Z.Z.V.Z.Z.Z.Z.V.Z.Z.V.D.V.S.",
"Z.Z.Z.Z.Z.Z.Z.V.Z.Z.Z.Z.V.Z.Z.Z.V.Z.Z.Z.Z.V.Z.K :.;.V.Z.Z.Z.Z.V.Z.Z.Z.Z.V.Z.Z.Z.Z.Z.Z.Z.Z.V.Z.Z.Z.Z.",
"Z.Z.V.Z.Z.Z.Z.Z.Z.Z.Z.Z.Z.Z.Z.Z.Z.Z.Z.Z.Z.Z.Z.C &.*.Z.Z.Z.Z.Z.Z.Z.Z.Z.Z.Z.Z.Z.Z.Z.Z.Z.Z.Z.Z.Z.Z.Z.Z.",
"Z.Z.Z.Z.Z.Z.Z.Z.Z.Z.Z.Z.Z.Z.Z.Z.Z.Z.Z.Z.Z.Z.Z.8 =.8.Z.Z.Z.Z.Z.Z.Z.Z.Z.Z.Z.Z.Z.Z.Z.Z.Z.Z.Z.Z.Z.Z.Z.Z.",
"V.Z.V.Z.S.V.Z.Z.Z.Z.Z.Z.Z.Z.V.Z.Z.Z.Z.V.Z.V.Z.I 9.k.V.Z.V.Z.Z.Z.Z.Z.Z.Z.Z.Z.Z.Z.Z.Z.Z.Z.Z.V.Z.V.Z.V.",
"D.V.Z.S.V.S.V.D.V.Z.Z.Z.Z.V.Z.Z.A.V.Z.D.V.A.V.| r.r.A.V.D.V.Z.Z.V.Z.V.Z.Z.V.Z.Z.Z.V.Z.Z.Z.Z.V.D.V.D.",
"V.D.V.Z.D.V.S.V.Z.Z.Z.Z.Z.Z.Z.Z.V.Z.Z.V.A.V.A.8.h.,.V.D.V.Z.Z.Z.Z.Z.Z.Z.Z.Z.Z.Z.Z.Z.Z.Z.Z.V.D.V.S.V.",
"D.V.Z.Z.V.Z.V.S.Z.V.Z.V.Z.Z.Z.Z.Z.Z.Z.S.V.S.V.u.9.I m.V.S.V.Z.S.Z.Z.Z.Z.Z.Z.V.Z.Z.Z.Z.Z.Z.Z.V.D.V.S.",
"V.D.V.Z.D.V.D.V.Z.Z.Z.Z.Z.Z.V.Z.V.S.X.d.Z.t.U 9.r.C ` Z.V.m.` V.Z.Z.Z.Z.Z.Z.Z.Z.Z.Z.V.D.Z.V.S.V.S.V.",
"D.V.D.Z.V.D.V.D.Z.Z.Z.Z.Z.V.Z.Z.Z.f.J X.N.e.=.r.r.( * B.V.o.8.Z.V.D.V.Z.Z.Z.Z.Z.Z.V.Z.V.Z.Z.V.D.V.D.",
"Z.Z.Z.Z.V.Z.V.Z.Z.Z.Z.Z.Z.Z.Z.Z.Z.~ B &.d.] r.r.r.M & K a.;.l.Z.Z.Z.V.Z.Z.Z.Z.Z.Z.Z.Z.Z.Z.Z.Z.Z.Z.Z.",
"B.D.Z.V.D.V.D.V.Z.Z.Z.Z.V.D.V.Z.V.m : ;.u.9.r.r.7.4.& : r.r.l.V.S.V.D.V.Z.Z.Z.Z.V.D.V.D.V.V.D.B.D.V.",
"D.B.S.S.B.D.V.D.Z.V.Z.Z.Z.V.Z.Z.Z.w.H ;.h.r.,.} 9.^ 4.! V / J A.V.D.V.Z.Z.Z.Z.V.D.V.Z.V.S.S.V.D.V.D.",
"B.D.V.V.D.V.D.V.Z.D.V.Z.V.D.Z.Z.V.A.f.a.Z.M.D.N.B 5.5.6.m.Z.V.V.Z.V.D.V.Z.V.Z.Z.V.D.V.S.V.V.D.V.D.B.",
"D.B.S.D.B.D.V.D.Z.V.Z.Z.D.V.Z.Z.A.V.V.D.V.D.B.Z.V.N.D.N.D.V.V.D.V.D.V.D.Z.Z.Z.V.D.V.S.V.D.D.B.D.B.D."
};
