/* XPM */
static char *_9d8b3b19b8e483b89516ef4d71ab132PrMhWlNjSCOksFqq[] = {
/* columns rows colors chars-per-pixel */
"50 68 250 2 ",
"   c #523708",
".  c #7B340E",
"X  c #651E2C",
"o  c #035F06",
"O  c #2D5311",
"+  c #026906",
"@  c #037707",
"#  c #03730C",
"$  c #12730C",
"%  c #076B15",
"&  c #037617",
"*  c #037B12",
"=  c #13512E",
"-  c #255C3B",
";  c #0D7025",
":  c #187431",
">  c #2C672A",
",  c #36673B",
"<  c #696817",
"1  c #1E3F40",
"2  c #4D2E4F",
"3  c #732F46",
"4  c #195047",
"5  c #1E5953",
"6  c #284948",
"7  c #24574A",
"8  c #295A59",
"9  c #19724B",
"0  c #306B4F",
"q  c #265A68",
"w  c #305A60",
"e  c #286368",
"r  c #447857",
"t  c #4B7852",
"y  c #7A6D51",
"u  c #4D6D6C",
"i  c #79746E",
"p  c #8F1804",
"a  c #AE1106",
"s  c #953513",
"d  c #AE350B",
"f  c #97322C",
"g  c #D01406",
"h  c #D91802",
"j  c #E61805",
"k  c #C72604",
"l  c #DB2406",
"z  c #CD340E",
"x  c #F22E0F",
"c  c #E73907",
"v  c #F93707",
"b  c #FD3C05",
"n  c #964716",
"m  c #AD4C0F",
"M  c #AF5503",
"N  c #B44617",
"B  c #91680B",
"V  c #AF6B13",
"C  c #964E36",
"Z  c #B35526",
"A  c #B17421",
"S  c #CF4E0F",
"D  c #FC4403",
"F  c #FC4B03",
"G  c #F84609",
"H  c #EA500F",
"J  c #EB5A09",
"K  c #FD5304",
"L  c #FC5A03",
"P  c #FC550A",
"I  c #F95C0C",
"U  c #F74815",
"Y  c #F95918",
"T  c #CA6317",
"R  c #D36A10",
"E  c #DD7B16",
"W  c #FD6704",
"Q  c #E9780A",
"!  c #FC7805",
"~  c #E96A13",
"^  c #FA6417",
"/  c #FC7B16",
"(  c #D7552F",
")  c #EE5526",
"_  c #F65B23",
"`  c #CF6C29",
"'  c #E86725",
"]  c #EA7325",
"[  c #FA7427",
"{  c #C93E41",
"}  c #8B5854",
"|  c #B3705C",
" . c #8B7373",
".. c #DD6942",
"X. c #058709",
"o. c #099206",
"O. c #1B930B",
"+. c #068917",
"@. c #118913",
"#. c #079518",
"$. c #189613",
"%. c #2F8F13",
"&. c #2A9A1A",
"*. c #2BA015",
"=. c #38A619",
"-. c #068927",
";. c #128D32",
":. c #2F952B",
">. c #1AAE32",
",. c #39A228",
"<. c #26A531",
"1. c #4F8F14",
"2. c #6F9A0E",
"3. c #5DAB11",
"4. c #54A71A",
"5. c #6FAD15",
"6. c #79A919",
"7. c #4A972B",
"8. c #49AA27",
"9. c #58B02F",
"0. c #64AA24",
"q. c #72B02F",
"w. c #74C22E",
"e. c #229B4B",
"r. c #538F52",
"t. c #6B9B45",
"y. c #6A955C",
"u. c #51A85F",
"i. c #71AA52",
"p. c #4B876B",
"a. c #669C73",
"s. c #74AC6D",
"d. c #7DC444",
"f. c #B88C18",
"g. c #8FB70D",
"h. c #87B81B",
"j. c #87B923",
"k. c #D9860F",
"l. c #FB8806",
"z. c #F99807",
"x. c #F88517",
"c. c #E79213",
"v. c #FA9818",
"b. c #EEAD03",
"n. c #FCA50A",
"m. c #FBAB08",
"M. c #FAB70C",
"N. c #FBA817",
"B. c #FAB61A",
"V. c #D28B30",
"C. c #F98928",
"Z. c #FA9729",
"A. c #E98C31",
"S. c #F58E37",
"D. c #F7983A",
"F. c #FCAC23",
"G. c #FDA62A",
"H. c #F8B729",
"J. c #EFAC37",
"K. c #FBA936",
"L. c #EEB93A",
"P. c #FAB836",
"I. c #87C534",
"U. c #B6D72D",
"Y. c #CED912",
"T. c #F7C817",
"R. c #C6DE30",
"E. c #F9C725",
"W. c #FAC339",
"Q. c #F3D039",
"!. c #9C9550",
"~. c #ABAA71",
"^. c #F2934C",
"/. c #EBA749",
"(. c #F8A844",
"). c #FBB745",
"_. c #FAA753",
"`. c #F9B452",
"'. c #E09E63",
"]. c #CAAE77",
"[. c #ACDB4B",
"{. c #F9C848",
"}. c #FCC856",
"|. c #F7D25B",
" X c #DBC969",
".X c #F8CA6A",
"XX c #1F649A",
"oX c #035BB5",
"OX c #0666BA",
"+X c #1468B0",
"@X c #1C76B9",
"#X c #2575B3",
"$X c #5D5994",
"%X c #517288",
"&X c #68708A",
"*X c #0F59C7",
"=X c #0E72C8",
"-X c #2978C4",
";X c #2C7CCE",
":X c #946E9F",
">X c #2B83B6",
",X c #3681B9",
"<X c #55879A",
"1X c #6EAF8D",
"2X c #128BD9",
"3X c #3884C7",
"4X c #338CCF",
"5X c #0C8FE6",
"6X c #299DF1",
"7X c #11AAED",
"8X c #4489C9",
"9X c #4B96C9",
"0X c #5293CD",
"qX c #4695D6",
"wX c #659DD8",
"eX c #7D91DB",
"rX c #58A4D8",
"tX c #77ACD7",
"yX c #4698E6",
"uX c #709CEB",
"iX c #4CAAF3",
"pX c #53ADF0",
"aX c #71A4E5",
"sX c #6AB7ED",
"dX c #75B8EC",
"fX c #6CB2F4",
"gX c #73BAF5",
"hX c #7AC4ED",
"jX c #6FC5F6",
"kX c #79C6F7",
"lX c #8BB892",
"zX c #A0A59B",
"xX c #D0AB8F",
"cX c #C8AEA3",
"vX c #99C8A2",
"bX c #CDE3BD",
"nX c #8A96D8",
"mX c #89B2D6",
"MX c #86B2E9",
"NX c #88B9F4",
"BX c #BED7C9",
"VX c #88C5E8",
"CX c #87C9F9",
"ZX c #D0CECC",
"AX c #E6DFDE",
"SX c #CFE7D5",
"DX c #E7EAE8",
"FX c #EBF0ED",
"GX c #F6F6F6",
"HX c #F6F6F8",
/* pixels */
"GXGXGXGXGXGXGXGXGXGXGXGXGXGXGXGXGXGXGXGXGXGXGXGXGXGXGXGXGXGXGXGXGXGXGXGXGXGXGXGXGXGXGXGXGXGXGXGXGXGX",
"GXGXGXGXGXGXGXGXGXGXGXGXGXGXGXGXGXGXGXGXGXGXGXGXGXGXGXGXGXGXGXGXGXGXGXGXGXGXGXGXGXGXGXGXGXGXGXGXGXGX",
"GXGXGXGXGXGXGXGXGXGXGXGXGXGXGXGXGXGXGXGXGXGXGXGXSXa.GXGXGXGXHXHXGXGXGXGXGXGXGXGXGXGXGXGXGXGXGXGXGXGX",
"GXGXGXGXGXGXGXGXGXGXGXGXGXGXGXGXGXGXGXGXGXGXGXGX$.o.GXGXHXHXHXHXGXGXGXGXGXGXGXGXGXGXGXGXGXGXGXGXGXGX",
"GXGXGXGXGXGXGXGXGXGXGXGXGXGXGXGXHXHXHXGXHXHXHX: q.*., HXHXHXHXHXGXGXGXGXGXGXGXGXGXGXGXGXGXGXGXGXGXGX",
"GXGXGXGXGXGXGXGXGXGXGXGXGXGXGXGXHXHXHXu HXHXHX9.I.1.* GXHXBX1XGXGXGXGXGXGXGXGXGXGXGXGXGXGXGXGXGXGXGX",
"GXGXGXGXGXGXGXGXGXGXGXGXGXGXGXGX;.HXGX: HXHXu.U.h.7.X.GXHX: ; GXGXGXGXGXGXGXGXGXGXGXGXGXGXGXGXGXGXGX",
"GXGXGXGXGXGXGXGXGXGXGXGXGXGXGXGX-.GXGX; = FXu.Y.0.8.o.vXHX& : GXGXGXGXGXGXGXGXGXGXGXGXGXGXGXGXGXGXGX",
"GXGXGXGXGXGXGXGXGXGXGXGXGXGXGXGX<.7.HX0 @ GX[.Y.q.1.O.* GX+ s.GX9 HXGXGXHXHXHXHXHXGXGXGXGXGXGXGXGXGX",
"GXGXGXGXGXGXGXGXGXGXGXGXGXGXGXGX<.5.HX9 @ # [.R.h.h.4.@ lX+ BXGX@.HXGXGXHXHXFXHXHXHXGXGXGXGXGXGXGXGX",
"GXGXGXGXGXGXGXGXGXGXGXGXGXGXGXGXe.I.!.% # $ U.R.2.g.5.X.+.# FXSXX.GXGXGXFXHXGXGXGXGXGXGXGXGXGXGXGXGX",
"GXGXGXGXGXGXGXGXGXGXGXGXGXGXGXGX7.I.w.$ * $ U.R.j.h.0.X.& + GXe.X.GXGXGXe.GXGXHXGXGXGXGXGXGXGXGXGXGX",
"GXGXGXGXGXGXGXGXGXGXGXGXGXGXGXGXlXg.h.3.+ $ g.g.3.h.I.#.& % GX8.# HXHXHX+.HXHXHXGXGXGXGXGXGXGXGXGXGX",
"GXGXGXGXGXGXGXGXGXGXGXGXGXGXGXGXGXw.I.3.$ $ j.6.q.q.I.@.& # ,.4.+.HXHX1X#.HXHXHXGXGXGXGXGXGXGXGXGXGX",
"GXGXGXGXGXGXGXGXGXGXGXGX; GXGXGXGX,.5.h.=.+ 0.5.%.q.I.O.& @ w.0.+.GXGX#.-.HXHXHXGXGXGXGXGXGXGXGXGXGX",
"GXGXGXGXGXGXGXGXGXGXGXGX-.* GXGXGXSX3.5.%.# q.4.,.7.q.$.+ d.5.=.-.GX-.*.; HXHXHXGXGXGXGXGXGXGXGXGXGX",
"GXGXGXGXGXGXGXGXGXGXGXGX#.=.* GXGXGX#.4.%.+.,.4.O.,.%.X.%.q.3.O.;.HX9.$.FXGXGXGXGXGXGXGXGXGXGXGXGXGX",
"GXGXGXGXGXGXGXGXGXGXGXGXu.4.9.X.p.GX#.&.+.-.@.8.@.+.#.X.q.5.=.+.;.8.3.#.GXGXGXGXGXGXGXGXGXGXGXGXGXGX",
"GXGXGXGXGXGXGXGXGXGXGXGXHX>.6.4.X.* + @.* +.* #.;.+.X.9.3.&.+.@ $.0.*.;.GXGXGXGXGXGXGXGXGXGXGXGXGXGX",
"GXGXGXGXGXGXGXGXGXGXGXGXHXHX8.9.O.& @ X.+.# & * +.@ ,.:.#.X.X.X.9.*.#.GXGXGXGXGXGXGXGXGXGXGXGXGXGXGX",
"GXGXGXGXGXGXGXGXGXGXGXGXGXGXGX<.*.+.% + * & + + & & & # + # +.>.o.;.GXGXGXGXGXGXGXGXGXGXGXGXGXGXGXGX",
"GXGXGXGXGXGXGXGXGXGXGXGXGXGXGXDX+.% $ # + % o o % + + + & & -.* +.HXGXGXGXGXGXGXGXGXGXGXGXGXGXGXGXGX",
"GXGXGXGXGXGXGXGXGXGXGXGXGXGXGXGXGXO   s N ` [ ' p p p .   O + ; GXGXGXGXGXGXGXGXGXGXGXGXGXGXGXGXGXGX",
"GXGXGXGXGXGXGXGXGXGXGXGXGXGXGXGXcXc.x.! l./ J H W J l U Y H . GXGXGXGXGXGXGXGXGXGXGXGXGXGXGXGXGXGXGX",
"GXGXGXGXGXGXGXGXGXGXGXGXHXHXHXAXQ l.x.R S x.l.! L G K c U G l } GXGXGXGXGXGXGXGXGXGXGXGXGXGXGXGXGXGX",
"GXGXGXGXGXGXGXGXGXGXGXGXHXHXGX] l.S.R Z.k.x.z.! W J W ^ l g U Z DXGXGXGXGXGXGXGXGXGXGXGXGXGXGXGXGXGX",
"GXGXGXGXGXGXGXGXGXGXGXGXHXHX` R ~ K.v.n.z.k.N.l.l.! ^ G K G h ) N GXGXGXGXVX>X;XHXGXGXGXGXGXGXGXGXGX",
"GXGXGXGXGXGXGXGXGXGXGXGXHX} J z.F.N.N.N.n.n.E v.Z.S J L D G D U k  .GXGXGXHXkX;XGXGXGXGXGXGXGXGXGXGX",
"GXGXGXGXGXGXGXGXGXGXGXGXGX/ ] n.F.N.v.K.B.F.K.S.N Z.l.W K P v K G p GXHXGXGXdXyXGXGXGXGXGXGXHXGXGXGX",
"GXGXGXGXGXGXGXGXGXGXGXGX] z.x.Z.(.L.P.H.P.).M J.(.' z.! P F v P v k GXHXGXGX+X+XGXGXGXGXGXGXGXGXGXGX",
"GXGXGXGXGXGXGXGXGXGXGXGXz.n.c.`.n ).L.`.V ^.).P.P.Z.d W L F F x l b Z HXGXGXdXqXHXGXGXGXGXGXGXGXGXGX",
"GXGXGXGXGXGXGXGXGXGXGXD.v.n.W.{.}._.V.^.).{.W.J.P.n.x.d Y L U c U b s 0XrXwXpXqXGXGXGXGXGXGXGXGXGXGX",
"GXGXGXGXGXGXGXGXGXGXGXN.M L.{.).`.s _.P.B.|.{.A ).n.z.l._ l _ L D v d HXHXHXGXHXGXGXGXGXGXGXGXGXGXGX",
"GXGXGXGXGXGXGXGXGXGXGXz.k.{.|.V./.{.` (.B.).|.f.).B.z.x.k _ k I b v H | HXHXGXGXGXGXGXGXGXGXGXGXGXGX",
"GXGXGXGXGXGXGXGXGXGXxXz.P..XB .X.XQ.W.R ^.L.W.|.W.N.D.z ^ W P h D D D m GXGXGXGXGXGXGXGXGXGXGXGXGXGX",
"GXGXGXGXGXGXGXGXGXGX( Z.`.V.zXtXdXu zX).A.S.(.K.G.T C.W W P L D j j c N GXGXGXGXGXGXGXGXGXGXGXGXGXGX",
"GXGXGXGXGXGXGXGXGXGX( R P.i OX=X5XiXXX'.B.K.N K.m ).l.! W P c D v b x a GXGXGXGXGXGXGXGXGXGXGXGXGXGX",
"GXGXGXGXGXGXGXGXGXGXS ^.J.mXoX5X7X=X2XX H.P.(.d G.v.l.W L K G D v b l c s GXGXGXGXGXGXGXGXGXGXGXGXGX",
"GXGXGXGXGXGXGXGXGXGXc.d `.dXOX7X7XOX2X3 }.(.M ` A.v.l.W K F P D v j v v s GXGXGXGXGXGXGXGXGXGXGXGXGX",
"GXGXGXGXGXGXGXGXGXGXm.Z.A.&XiX=X2XiXOXf _.T K.B.D.d / W K D F P j x v c n GXGXGXGXGXGXGXGXGXGXGXGXGX",
"GXGXGXGXGXGXGXGXGXGXl.z.N /.u aXrXXX2 ( n F.B.K.B.G.S ^ F F G h b b x v n GXGXGXGXGXGXGXGXGXGXGXGXGX",
"GXGXGXGXGXGXGXGXGXGXQ G.z...T. X  . d A.B.M.E.c.M.b.G._ x U U c b v g c m GXGXGXGXGXGXGXGXGXGXGXGXGX",
"GXGXGXGXGXGXGXGXGXGXQ P.B.(./.E.E.m /.P.'.xXxX XL.n.n.v.^ g U F b b x c d GXGXGXGXGXGXGXGXGXGXGXGXGX",
"GXGXGXGXGXGXGXGXHXHXz.N.N.B.`.J.V `.E.!.mXCXNXdX&X].l.! c U P l b b b c p GXGXGXGXGXGXGXGXGXGXGXGXGX",
"GXGXGXGXGXGXGXGXHXHXN.N.B.H.{.s _.T.~.VX9X9X9X9XpXwX^.G Y P ^ Y j b b a C GXGXGXGXGXGXGXGXGXGXGXGXGX",
"GXGXGXGXGXGXGXGXHXHXF.N.H.(.V.Q.V..XMXqXkXCXkXjX3XjX$X) K _ X $X:Xf x z cXGXGXGXGXGXGXGXGXGXGXGXGXGX",
"GXGXGXGXGXGXGXGXHXHXZ.z.M P.M.E.T. XjXkX9XCXhX8XkXNXwX) P 3 uX4X=XnX{ N ZXGXGXGXGXGXGXGXGXGXGXGXGXGX",
"GXGXGXGXGXGXGXGXHXHXd R F.H.N.M.T.~.kXkXVXVXhXhXCX0XwX) Y $XyX6X=X=X3 n AXGXGXGXGXGXGXGXGXGXGXGXGXGX",
"GXGXGXGXGXGXGXGXGXGX| H l.m.F.M.E.y rXfXdX9XkXkXgX8XaX~ ' eXOX5X6X*X2 n GXGXGXGXGXGXGXGXGXGXGXGXGXGX",
"GXGXGXGXGXGXGXGXGXGXGX^ ' l.k.K.M.y rX8X3X+XjX9X8X#XuXY Y } pX=X*XMX} N GXGXGXGXGXGXGXGXGXGXGXGXGXGX",
"GXGXGXGXGXGXGXGXGXGXGXx.~ ^.Z.G.M.y 0X8X3XiX@XCX@X-XwX) P a :XnXeX2 N cXGXGXGXGXGXGXGXGXGXGXGXGXGXGX",
"GXGXGXGXGXGXGXGXGXGXGXC.l.] Z.n.N.C aX3X4XfX-XCX@X3XdX) F G k a a g S GXGXGXGXGXGXGXGXGXGXGXGXGXGXGX",
"GXGXGXGXGXGXGXGXGXGXGX/.c.l.S ! ] Z gX-X4X4XjXsX#X#XqX( P P h G c S d GXGXGXGXGXGXGXGXGXGXGXGXGXGXGX",
"GXGXGXGXGXGXGXGXGXGXGXO 2.k.k.^ / ` MX#XjXsXjXVX-X@XpX{ U l U M f.f.!.GXGXGXGXGXGXGXGXGXGXGXGXGXGXGX",
"GXGXGXGXGXGXGXGXGXGXGXbXo.1.f.v.Q ` MX4XfXgXhXdX8X=XtX' [ ] B B 1.~.GXGXGXGXGXGXGXGXGXGXGXGXGXGXGXGX",
"GXGXGXGXGXGXGXGXGXGXGXGXSXi.B R Z.V.NXsX3X3XrX>X#X+XzX[ x.E < AXGXGXGXGXGXGXGXGXGXGXGXGXGXGXGXGXGXGX",
"GXGXGXGXGXGXGXGXGXGXGXGXGXGXGXGXGXGX%X1X%X,X3X>X<Xq  .GXGXGXGXGXGXGXGXGXGXGXGXGXGXGXGXGXGXGXGXGXGXGX",
"GXGXGXGXGXGXGXGXGXGXGXGXGXGXGXGXGXi p.7.r.5 5 y.7.y.cXGXGXGXGXGXGXGXGXGXGXGXGXGXGXGXGXGXGXGXGXGXGXGX",
"GXGXGXGXGXGXGXGXGXGXGXGXGXGXGXGXGX6 = = 5 r.9 r t r.1 GXGXGXGXGXGXGXGXGXGXGXGXGXGXGXGXGXGXGXGXGXGXGX",
"GXGXGXGXGXGXGXGXGXGXGXGXGXGXGXGXDX5 5 4 q 4 5 > t , - GXGXGXGXGXGXGXGXGXGXGXGXGXGXGXGXGXGXGXGXGXHXGX",
"GXGXGXGXGXGXGXGXGXGXGXGXGXGXGXGX1 u y.y.0 5 e i.t.t.1Xu GXGXGXGXGXGXGXGXGXGXGXGXGXGXGXGXGXGXGXGXGXGX",
"GXGXGXGXGXGXGXGXGXGXGXGXGXGXGXGXw s.i.q.s.0 0 y.r.7.r 8 GXGXGXGXGXGXGXGXGXGXGXGXGXGXGXGXGXGXGXGXGXGX",
"GXGXGXGXGXGXGXGXGXGXGXGXGXGXGXu 8 r t.r.y., 0 - e 5 6 4 w GXGXGXGXGXGXGXGXGXGXGXGXGXGXGXGXGXGXGXGXGX",
"GXGXGXGXGXGXGXGXGXGXGXGXGXGXGX8 r.r.= 7 e p.r.1X0 u.~.s.= lXGXGXGXGXGXGXGXGXGXGXGXGXGXGXGXGXGXGXGXGX",
"GXGXGXGXGXGXGXGXGXGXGXGXGXGXZXe 0 7.= q e 0 > - 0 y.t.i.~.6 HXHXGXGXGXGXGXGXGXGXGXGXGXGXGXGXGXGXGXGX",
"GXGXGXGXGXGXGXGXGXGXGXGXGXGXw q u y.~.u p.lXi.i.r.= , > = 5 GXHXGXGXGXGXGXGXGXGXGXGXGXGXGXGXGXGXGXGX",
"GXGXGXGXGXGXGXGXGXGXGXGXGXGXGXGXHXHXHXHXGXGXGXGXHXHXHXFXGXGXGXGXGXGXGXGXGXGXGXGXGXGXGXGXGXGXGXGXGXGX",
"GXGXGXGXGXGXGXGXGXGXGXGXGXGXGXGXGXHXHXFXGXGXGXGXHXHXHXHXGXGXGXGXGXGXGXGXGXGXGXGXGXGXGXGXGXGXGXGXHXGX"
};
