/* XPM */
static char *_5e24f1a0f3b4cfbb02fe1a8274ebd52DN5F1OzvEAEJzHy5[] = {
/* columns rows colors chars-per-pixel */
"50 50 111 2 ",
"   c #59A9B4",
".  c #5FB3BD",
"X  c #2FB8CA",
"o  c #33BCCE",
"O  c #3CBECF",
"+  c #45BFCF",
"@  c #4ABFCF",
"#  c #55BCCD",
"$  c #58BFCE",
"%  c #65BAC5",
"&  c #61B9C9",
"*  c #3EC2D3",
"=  c #44C3D4",
"-  c #4BC3D3",
";  c #4BCBDB",
":  c #56C5D4",
">  c #5BC3D3",
",  c #51C6D8",
"<  c #5CCBDB",
"1  c #66C0CE",
"2  c #68C0CB",
"3  c #6DC9D4",
"4  c #62CDDD",
"5  c #6CCEDB",
"6  c #72CEDB",
"7  c #78CDD8",
"8  c #6ED0DD",
"9  c #75D2DE",
"0  c #7DD2DE",
"q  c #54D0E0",
"w  c #5ED6E5",
"e  c #66CFE0",
"r  c #64D3E3",
"t  c #6FD3E4",
"y  c #65DAE9",
"u  c #73D4E5",
"i  c #7AD5E4",
"p  c #72D7E8",
"a  c #74DBEB",
"s  c #7BDEEC",
"d  c #77E0EE",
"f  c #78E0EF",
"g  c #74E3F0",
"h  c #7BE5F3",
"j  c #7EE9F6",
"k  c #82DAE6",
"l  c #8AD9E6",
"z  c #84DBE9",
"x  c #8BDCE9",
"c  c #91D9E3",
"v  c #9DDBE3",
"b  c #93DEEB",
"n  c #9DDFEB",
"m  c #A2DDE4",
"M  c #80E0EE",
"N  c #89E2EE",
"B  c #9CE0EC",
"V  c #84E6F2",
"C  c #8BE5F1",
"Z  c #85EAF6",
"A  c #8CEBF6",
"S  c #94E7F1",
"D  c #90ECF6",
"F  c #9BEBF5",
"G  c #94EDF8",
"H  c #9BEEF8",
"J  c #ABE0E7",
"K  c #A4E2ED",
"L  c #AAE3EC",
"P  c #B4E6ED",
"I  c #B8E6ED",
"U  c #A5E7F0",
"Y  c #ADE6F0",
"T  c #A6EDF6",
"R  c #ABEDF5",
"E  c #A3EFF9",
"W  c #B6E9F0",
"Q  c #BEEBF3",
"!  c #BEF0F7",
"~  c #B0F2FA",
"^  c #BCF2FA",
"/  c #BDF3FB",
"(  c #BFF4FA",
")  c #C4E9EE",
"_  c #C5EEF4",
"`  c #CAECF2",
"'  c #CBEFF6",
"]  c #CCEFF4",
"[  c #D1ECF0",
"{  c #D4EDF1",
"}  c #C0F3F9",
"|  c #C4F5FB",
" . c #D7F3F7",
".. c #D4F7FC",
"X. c #D7F7FC",
"o. c #D4F8FC",
"O. c #DEF9FC",
"+. c #E2F3F6",
"@. c #E7F6F8",
"#. c #E4F7FA",
"$. c #E5FAFD",
"%. c #E8F9FB",
"&. c #EFF8FA",
"*. c #EAFAFD",
"=. c #EDFCFE",
"-. c #F1FAFC",
";. c #F2FBFC",
":. c #F3FDFE",
">. c #F5FCFD",
",. c #FBFEFF",
"<. c #FDFEFF",
/* pixels */
"# > S D D D D D A D D D D D A D D D D D D D D D D A D D D D D D D A D D D D D D D A D D A A A V > : ",
"> H Z j j j j j j j j j j j j j j j j j j j j j j j j j j j j j j j j j j j j j j j j j j j Z j V : ",
"C Z j j j j j j j h h j j j j j j j j j j j j j j j j j j j j j j j j j j j j j H Q R Z j j j j j 5 ",
"A j a a t t t t t t t t t t t t u u p a f h j j j j j j j j j j j j j j j j j T B e q i j j j j j 3 ",
"i t t t t t t t t t t t t t t t t t t t t t t t t p a h j j j j j j j j j V j l y j Z F j j j j Z & ",
"i t t t t t t t t t t t t t t t t t t t t t t t t t u t t t t u p a d d d d d s d S X.>.p p t t p & ",
"u t t t t t t t t t t t t t t t t t t t t t t t t t t t t t t t t t t t p t t t U ;.;.k t t t t t $ ",
"u t t t t t t t t t t t t t t t t t t t t t t u t t t t t t t t t t t t t t t t 5 p t t t t t t t & ",
"i t t t t t t t t t t t t u t t t t t t t t t t t t t t t u t t t t t t t t t t t t t t t t t t t & ",
"i t t t t t t t t t t t { : 0 i t t t t t t t t t t t t t t t t t t p t t t t t t t t t t t t t t & ",
"u t t t t t u t u u p L 5 r e 5 t t t t t t t t t t t t t t t t t t t t t t t t t t t t t u t t t & ",
"i u a f j j j j j j j 4 h j G ( j j h d a u t t t t t t t t t t t t t t t t t t t t t t t t t t t & ",
"Z j j j j j j j j j j z Z } ,.o.j j j j j j j j j h a a u t t t 5 u t t t t t t t t t t u t t t a 1 ",
"Z j j j j j j j j j j j T =./ j j j j j j j j j j j j j j j j j j d d a a a p u p a a d d j j j j 3 ",
"Z j j j j j j j j j j j j j j j j j j j j j j j j j j j j j j j j j j j j j j j j j j j j j j j j 3 ",
"Z V j j j j j j j j j j j j j j j j j j j j j j j j j j j Z Z Z j j j j j j j j j j j j j j j j j 3 ",
"Z j j j j j j j j j j j j j j j j j j j j j j j j j j G %.) m m  .G j j j j j j j j j j j j j j j 3 ",
"Z j j j j j j j j j j j j j j j j j j j j j j j j j T [ &.m o O o 0 G j j j j j j j j j j j j j j 3 ",
"Z j j j d a a u p t u t u t p a f f h j j j j j j j { + @.k w y w ; 0 j j j j j j j j j j j j j j 3 ",
"M u t t t t t t t t t t t t t t t t t t t t a a h / - * w g h j h d y N j j j j j j j j j j j j j 3 ",
"i t t t t t t t t t t t t t t t t t t u t t t t u ` X , r u a h Z A F U j j j j j j j j j h a p u # ",
"i t t t t t t t t t t t t t t t t t t t t t t t t P O 4 t t u i b m Q W t t t u t t t t t t t t t > ",
"i t t t t t t u t t t t t t u t t t t t t t t t t n = 4 t i x K ' -.-.n t t t t t t t t t t p t u % ",
"u t t t t W ) 7 c K t t t t t t t t t t t t t t t t 5 t z B W :.<.<.<.t t t t t t t t t t t t t t % ",
"u t t t U c +.+ - O l u t t t t t t t t t t t t t t u c L _ <.<.<.<.k t t t t t t t t t t t t t t % ",
"i t t t m O < t t e 9 u t t t t t t t t t t t t t t t u ] ;.<.<. .u u t t t t t t t t t t t t t 6 $ ",
"u t t p < r h j Z E ! j h j h a a a u t t t t t t t t t t t u t t t t t t t t t t t t t t t t t t & ",
"z h j j 9 g V F | :.$.j j j j j j j j j j j j a a u t t t t t t t t t t t t t t u t t t t t t u t & ",
"Z j j j V C ~ $.<.<.G j j j j j j j j j j j j j j j j j h h a a u u t t t t t t t t t t p a a h j 3 ",
"Z j j j j V O.>.*.A j j j j j j j j j j j j j j j j j j j j j j j j j j j j j j j j j j j j j j j 3 ",
"Z V j j j j j j j j j j j j j j j j j j j j j j j j j j j j j j j j j j j j j j j j j j j j j j j 3 ",
"Z j j j j j j j j j j j j j j j j j j j j j j j j j j j j j j j j j j j j j j j j j j j j j j j j 3 ",
"Z j j j j j j j j j Z j j j j j j j j j j j j j j j j j j j j j j j j j j j j j j j j j j j j j j 3 ",
"Z j j j j V j f j f f f h h j h j j j j j j j j j j j j j j j j j j j j j j j j j j j j j j j j j 3 ",
"Z h a p t t t t t t t t t t t t t t t u a h j j j j j j j j j j j j j j j j E { v P H j j j j j j 3 ",
"i t t t t t t t t t t t t t t t t t t t t t t t t t a a h h j j j j j j j T v ;.* ; ; A j j Z h s & ",
"u t t t t t t t t t t t t t t t t t t t t t t t t t u t t t t t t u p a a J o y a a t 9 t t t t u & ",
"i t t t t t t t t t t t t t t t t t t t u t t t t t t t t t t t t t t t t 5 < t u u x P t t t t u $ ",
"i t t t t t t t t t t t t t t t u t u t t t t t t t t t t t t t t t t t t 6 4 i z L #.*.t t t t t & ",
"u t t t t t t t t t t t t t t t x +.@ 6 u t t t t t t t t t t t t t t t t u u m  .<.,.x t t t t t & ",
"u t t t t t t t t t t t t t t t 0 4 5 r 6 t t t t t t t t t t t t t t t t t l  .<.:.b t u t t t u & ",
"i t t t t t u p a a a a p p p u : t u n _ t t t t t t t t t t t t t t t t t t t t t t t t t t t u > ",
"i p f j j j j j j j j j j j j j s G ..<.R a t t t t t t t t t t t t t t t t t t t t t t t t t t t % ",
"Z j j j j j j j j j j j j j j j j F ..H j j j j j j h d a p t p t t t t t t t u t t t t t t t u a 3 ",
"Z j j j j j j j j j j j j j j j j j j j j j j j j j j j j j j j j j h f f s a a a a h h h j j j j 3 ",
"Z Z j j j j j j j j j j j j j j j j j j j j j j j j j j j j j j j j j j j j j j j j j j j j j j j 3 ",
"Z j j j j j j j j j j j j j j j j j j j j j j j j j j j j j j j j j j j j j j j j j j j j j j j V 1 ",
"d j j j j j j j j j j j j j j j j j j j j j j j j j j j j j j j j j j j j j j j j j j j j j j j f   ",
"$ t f V j j j j j j j j j j Z j j j j j j j j j j j j j j j j j j j j j j j j j j j j j j j j f . # ",
"# $ % & & % % % % % % % % & % % % & % % 2 % % % % % 2 % % % % % % % % % % % % % % % % % % & %   # # "
};
